<svg id="svg" version="1.1" xmlns="http://www.w3.org/2000/svg" xmlns:xlink="http://www.w3.org/1999/xlink" width="400" height="112.22222222222221" viewBox="0, 0, 400,112.22222222222221"><g id="svgg"><path id="path0" d="M192.215 23.457 C 192.838 23.489,193.813 23.489,194.382 23.457 C 194.951 23.424,194.442 23.398,193.250 23.398 C 192.058 23.398,191.593 23.425,192.215 23.457 M20.775 40.042 C 20.717 40.523,20.669 47.393,20.668 55.308 C 20.667 68.643,20.646 69.734,20.379 70.186 C 20.072 70.705,18.969 71.333,18.364 71.333 C 17.829 71.333,17.800 73.646,18.333 73.785 C 18.517 73.833,18.667 73.935,18.667 74.012 C 18.667 74.089,18.922 74.199,19.233 74.258 C 20.498 74.495,20.573 74.755,20.667 79.250 L 20.750 83.250 40.666 83.292 C 63.545 83.341,61.747 83.199,62.352 85.000 C 62.797 86.325,65.013 86.204,65.417 84.833 C 65.861 83.326,65.807 83.333,75.942 83.333 L 84.833 83.333 84.833 67.594 C 84.833 58.612,84.898 51.689,84.984 51.469 C 85.223 50.858,85.810 50.333,86.256 50.333 C 86.482 50.333,86.667 50.256,86.667 50.163 C 86.667 50.069,86.854 49.920,87.083 49.833 C 87.767 49.574,87.718 47.585,87.025 47.447 C 85.253 47.092,84.871 46.234,84.850 42.555 C 84.841 40.982,84.788 39.575,84.732 39.430 C 84.640 39.191,81.668 39.167,52.755 39.167 L 20.880 39.167 20.775 40.042 M37.893 51.816 C 39.740 53.034,39.485 53.652,35.495 57.613 C 33.940 59.159,32.667 60.501,32.667 60.597 C 32.667 60.692,33.891 62.004,35.388 63.512 C 39.205 67.357,39.489 67.879,38.404 69.050 C 38.052 69.430,37.849 69.500,37.106 69.500 L 36.224 69.500 32.355 65.625 C 27.944 61.208,28.173 61.486,28.169 60.513 L 28.167 59.777 32.133 55.812 C 36.640 51.307,36.874 51.145,37.893 51.816 M69.059 51.750 C 69.349 51.887,71.324 53.743,73.448 55.875 C 77.450 59.890,77.442 59.879,77.358 61.124 C 77.342 61.371,75.987 62.844,73.335 65.499 L 69.336 69.500 68.427 69.500 C 67.316 69.500,66.667 68.855,66.667 67.752 C 66.667 67.153,66.839 66.945,69.865 63.893 L 73.063 60.668 70.140 57.709 C 66.160 53.682,66.054 53.472,67.327 52.173 C 68.052 51.434,68.277 51.379,69.059 51.750 M51.716 53.131 C 52.574 54.026,52.419 55.066,51.147 56.967 C 50.883 57.361,50.667 57.783,50.667 57.905 C 50.667 58.026,50.562 58.213,50.433 58.320 C 50.305 58.426,50.152 58.704,50.093 58.937 C 50.035 59.170,49.789 59.674,49.546 60.056 C 49.304 60.437,48.674 61.588,48.147 62.612 C 47.619 63.636,46.995 64.778,46.760 65.150 C 46.525 65.522,46.333 65.877,46.333 65.938 C 46.333 66.150,45.430 67.833,45.317 67.833 C 45.254 67.833,45.160 68.002,45.107 68.208 C 44.765 69.540,42.802 70.022,41.931 68.987 C 41.326 68.267,41.370 67.560,42.105 66.201 C 42.438 65.586,43.123 64.296,43.627 63.333 C 44.132 62.371,44.591 61.546,44.647 61.500 C 44.704 61.454,45.132 60.667,45.599 59.750 C 49.062 52.948,49.256 52.667,50.500 52.667 C 51.126 52.667,51.355 52.754,51.716 53.131 M53.619 66.376 C 54.701 67.459,53.772 69.500,52.197 69.500 C 51.432 69.500,50.500 68.491,50.500 67.664 C 50.500 66.088,52.504 65.261,53.619 66.376 M59.033 66.531 C 60.434 68.219,58.097 70.475,56.461 69.014 C 55.787 68.412,55.689 67.223,56.250 66.468 C 56.873 65.630,58.312 65.662,59.033 66.531 M64.214 66.346 C 65.210 67.415,64.336 69.500,62.892 69.500 C 61.171 69.500,60.508 66.659,62.072 65.985 C 62.667 65.729,63.820 65.923,64.214 66.346 " stroke="none" fill="#e1f9f9" fill-rule="evenodd"></path><path id="path1" d="M47.060 0.583 C 47.008 0.721,46.853 0.833,46.717 0.833 C 46.580 0.833,46.430 0.983,46.382 1.167 C 46.334 1.350,46.191 1.500,46.064 1.500 C 45.919 1.500,45.833 1.685,45.833 2.000 C 45.833 2.333,45.750 2.500,45.583 2.500 C 45.207 2.500,45.207 11.855,45.583 12.167 C 45.721 12.281,45.833 12.515,45.833 12.687 C 45.833 12.859,45.937 13.000,46.064 13.000 C 46.191 13.000,46.334 13.150,46.382 13.333 C 46.430 13.517,46.588 13.667,46.734 13.667 C 46.880 13.667,47.000 13.742,47.000 13.833 C 47.000 14.425,47.663 14.667,49.283 14.667 C 50.541 14.667,50.856 14.711,50.700 14.867 C 50.406 15.160,50.414 24.438,50.708 24.556 C 50.823 24.603,47.035 24.646,42.292 24.654 L 33.667 24.667 33.667 19.167 C 33.667 13.778,33.660 13.667,33.333 13.667 C 33.074 13.667,33.000 13.556,33.000 13.167 C 33.000 12.696,32.514 12.000,32.186 12.000 C 32.105 12.000,32.000 11.850,31.952 11.667 C 31.888 11.424,31.724 11.333,31.349 11.333 C 31.002 11.333,30.833 11.252,30.833 11.083 C 30.833 10.867,30.231 10.833,26.417 10.833 L 22.000 10.833 22.000 9.667 C 22.000 8.722,21.937 8.437,21.667 8.167 C 21.483 7.983,21.333 7.681,21.333 7.495 C 21.333 7.309,21.221 7.113,21.083 7.060 C 20.946 7.008,20.833 6.869,20.833 6.752 C 20.833 6.525,20.329 6.339,19.703 6.336 C 19.494 6.334,19.280 6.221,19.227 6.083 C 19.083 5.707,9.871 5.707,9.727 6.083 C 9.672 6.226,9.424 6.333,9.149 6.333 C 8.778 6.333,8.667 6.410,8.667 6.667 C 8.667 6.889,8.556 7.000,8.333 7.000 C 8.148 7.000,8.000 7.111,8.000 7.250 C 8.000 7.388,7.888 7.500,7.750 7.500 C 7.575 7.500,7.500 7.676,7.500 8.083 C 7.500 8.491,7.425 8.667,7.250 8.667 C 6.873 8.667,6.873 17.795,7.250 17.940 C 7.387 17.992,7.500 18.140,7.500 18.268 C 7.500 18.396,7.650 18.650,7.833 18.833 C 8.017 19.017,8.167 19.279,8.167 19.417 C 8.167 19.554,8.271 19.667,8.399 19.667 C 8.527 19.667,8.670 19.770,8.719 19.895 C 8.767 20.021,9.009 20.175,9.257 20.237 C 9.504 20.299,9.816 20.459,9.949 20.592 C 10.771 21.413,20.333 20.756,20.333 19.877 C 20.333 19.761,20.446 19.667,20.583 19.667 C 20.721 19.667,20.833 19.554,20.833 19.417 C 20.833 19.279,20.946 19.167,21.083 19.167 C 21.258 19.167,21.333 18.991,21.333 18.583 C 21.333 18.111,21.397 18.000,21.667 18.000 C 21.972 18.000,22.000 17.889,22.000 16.667 L 22.000 15.333 25.583 15.333 L 29.167 15.333 29.167 20.000 L 29.167 24.667 24.484 24.667 C 19.942 24.667,19.800 24.677,19.715 25.000 C 19.653 25.236,19.488 25.333,19.147 25.333 C 18.831 25.333,18.667 25.419,18.667 25.583 C 18.667 25.722,18.519 25.833,18.333 25.833 C 18.148 25.833,18.000 25.944,18.000 26.083 C 18.000 26.221,17.887 26.333,17.750 26.333 C 17.611 26.333,17.500 26.481,17.500 26.667 C 17.500 26.852,17.389 27.000,17.250 27.000 C 16.797 27.000,16.880 70.547,17.333 71.000 C 17.780 71.446,18.266 71.420,18.864 70.917 C 19.136 70.688,19.458 70.500,19.578 70.500 C 20.311 70.500,20.333 70.023,20.333 54.086 C 20.333 39.353,20.341 39.008,20.656 38.839 C 21.168 38.565,84.738 38.601,84.966 38.876 C 85.068 38.999,85.162 40.386,85.195 42.251 C 85.255 45.677,85.410 46.345,86.207 46.595 C 86.414 46.660,86.749 46.890,86.950 47.106 C 87.410 47.600,88.000 47.633,88.000 47.167 C 88.000 46.944,88.111 46.833,88.333 46.833 C 88.663 46.833,88.667 46.722,88.667 37.180 C 88.667 27.419,88.649 27.000,88.232 27.000 C 88.104 27.000,88.000 26.850,88.000 26.667 C 88.000 26.481,87.889 26.333,87.750 26.333 C 87.612 26.333,87.500 26.221,87.500 26.083 C 87.500 25.946,87.396 25.833,87.268 25.833 C 87.140 25.833,86.992 25.721,86.940 25.583 C 86.885 25.440,86.636 25.333,86.358 25.333 C 86.012 25.333,85.847 25.237,85.785 25.000 C 85.700 24.677,85.558 24.667,81.016 24.667 L 76.333 24.667 76.333 20.000 L 76.333 15.333 80.000 15.333 L 83.667 15.333 83.667 16.667 C 83.667 17.741,83.715 18.000,83.917 18.000 C 84.091 18.000,84.167 18.176,84.167 18.583 C 84.167 18.991,84.242 19.167,84.417 19.167 C 84.554 19.167,84.667 19.279,84.667 19.417 C 84.667 19.556,84.815 19.667,85.000 19.667 C 85.183 19.667,85.333 19.777,85.333 19.913 C 85.333 20.759,94.746 21.397,95.539 20.604 C 95.666 20.477,96.008 20.321,96.301 20.257 C 96.594 20.193,96.833 20.042,96.833 19.923 C 96.833 19.803,96.983 19.666,97.167 19.618 C 97.368 19.566,97.500 19.391,97.500 19.177 C 97.500 18.982,97.612 18.780,97.750 18.727 C 97.888 18.674,98.000 18.489,98.000 18.316 C 98.000 18.142,98.103 18.000,98.229 18.000 C 98.596 18.000,98.667 17.200,98.667 13.076 C 98.667 9.072,98.627 8.667,98.232 8.667 C 98.078 8.667,98.000 8.471,98.000 8.083 C 98.000 7.676,97.925 7.500,97.750 7.500 C 97.612 7.500,97.500 7.388,97.500 7.250 C 97.500 7.112,97.396 7.000,97.269 7.000 C 97.143 7.000,97.000 6.850,96.952 6.667 C 96.888 6.424,96.724 6.333,96.349 6.333 C 96.002 6.333,95.833 6.252,95.833 6.083 C 95.833 5.706,86.418 5.706,86.273 6.083 C 86.218 6.227,85.969 6.333,85.685 6.333 C 85.110 6.333,84.167 7.174,84.167 7.685 C 84.167 7.864,84.054 8.054,83.917 8.106 C 83.724 8.180,83.667 8.502,83.667 9.518 L 83.667 10.833 79.245 10.833 C 75.468 10.833,74.809 10.870,74.727 11.083 C 74.672 11.226,74.424 11.333,74.149 11.333 C 73.778 11.333,73.667 11.410,73.667 11.667 C 73.667 11.852,73.556 12.000,73.417 12.000 C 72.999 12.000,72.500 12.635,72.500 13.167 C 72.500 13.500,72.417 13.667,72.250 13.667 C 72.033 13.667,72.000 14.389,72.000 19.167 L 72.000 24.667 63.292 24.662 C 57.294 24.658,54.674 24.604,54.875 24.487 C 55.308 24.235,55.322 15.448,54.891 14.971 C 54.625 14.678,54.677 14.666,56.266 14.661 C 57.926 14.656,58.667 14.405,58.667 13.848 C 58.667 13.748,58.779 13.667,58.917 13.667 C 59.056 13.667,59.167 13.519,59.167 13.333 C 59.167 13.148,59.278 13.000,59.417 13.000 C 59.554 13.000,59.667 12.887,59.667 12.750 C 59.667 12.612,59.817 12.350,60.000 12.167 C 60.317 11.849,60.333 11.611,60.333 7.234 C 60.333 2.776,60.323 2.633,60.000 2.548 C 59.764 2.487,59.667 2.321,59.667 1.981 C 59.667 1.665,59.581 1.500,59.417 1.500 C 59.278 1.500,59.167 1.352,59.167 1.167 C 59.167 0.944,59.056 0.833,58.833 0.833 C 58.648 0.833,58.500 0.722,58.500 0.583 C 58.500 0.206,47.205 0.206,47.060 0.583 M56.232 4.097 C 56.479 4.741,56.340 10.636,56.071 10.905 C 55.671 11.305,49.813 11.294,49.479 10.892 C 49.189 10.543,49.055 4.983,49.319 4.287 L 49.492 3.833 52.811 3.833 C 55.685 3.833,56.145 3.869,56.232 4.097 M17.796 9.759 C 18.186 10.032,18.396 16.338,18.023 16.569 C 17.677 16.783,11.285 16.691,11.145 16.470 C 10.949 16.162,10.965 10.448,11.163 9.928 L 11.325 9.500 14.375 9.500 C 16.867 9.500,17.494 9.548,17.796 9.759 M94.327 9.822 C 94.566 10.268,94.559 16.444,94.320 16.592 C 94.105 16.724,87.932 16.694,87.579 16.558 C 87.144 16.392,87.224 10.276,87.667 9.833 C 88.172 9.328,94.058 9.319,94.327 9.822 M84.487 28.743 C 85.119 29.070,85.162 29.310,85.164 32.536 C 85.167 35.121,85.143 35.334,84.844 35.494 C 84.466 35.696,21.038 35.739,20.720 35.537 C 20.469 35.377,20.434 34.827,20.470 31.617 L 20.500 28.984 21.042 28.748 C 21.871 28.388,83.790 28.383,84.487 28.743 M66.606 30.845 C 66.018 31.308,65.970 32.637,66.523 33.152 C 67.329 33.904,68.588 33.662,68.995 32.678 C 69.609 31.197,67.862 29.858,66.606 30.845 M71.576 30.909 C 71.264 31.221,71.167 31.495,71.167 32.061 C 71.167 33.861,73.517 34.255,73.955 32.528 C 74.363 30.921,72.697 29.788,71.576 30.909 M76.602 30.875 C 76.188 31.247,76.111 31.501,76.147 32.369 C 76.208 33.787,78.436 34.029,78.995 32.678 C 79.614 31.184,77.788 29.808,76.602 30.875 M27.250 30.973 C 26.446 31.464,26.215 32.048,26.547 32.745 C 27.102 33.907,25.995 33.843,44.538 33.794 L 61.250 33.750 61.708 33.345 C 62.490 32.655,62.327 31.600,61.338 30.941 C 60.666 30.494,27.984 30.525,27.250 30.973 M169.542 45.282 C 169.702 45.323,169.965 45.323,170.125 45.282 C 170.285 45.240,170.154 45.205,169.833 45.205 C 169.512 45.205,169.381 45.240,169.542 45.282 M87.125 50.163 C 86.895 50.345,86.506 50.569,86.262 50.662 C 85.135 51.091,85.172 50.507,85.173 67.812 C 85.173 79.236,85.123 83.436,84.983 83.604 C 84.826 83.793,83.262 83.833,76.000 83.833 C 66.531 83.833,66.338 83.844,66.061 84.388 C 65.418 85.652,65.283 85.833,64.993 85.833 C 64.781 85.833,64.709 85.915,64.773 86.083 C 64.826 86.221,64.973 86.333,65.101 86.333 C 65.229 86.333,65.333 86.446,65.333 86.583 C 65.333 86.721,65.437 86.833,65.564 86.833 C 65.691 86.833,65.834 86.983,65.882 87.167 C 65.965 87.485,66.109 87.500,68.984 87.500 L 72.000 87.500 72.000 93.000 C 72.000 97.778,72.033 98.500,72.250 98.500 C 72.417 98.500,72.500 98.667,72.500 99.000 C 72.500 99.532,72.999 100.167,73.417 100.167 C 73.556 100.167,73.667 100.315,73.667 100.500 C 73.667 100.757,73.778 100.833,74.149 100.833 C 74.424 100.833,74.672 100.941,74.727 101.083 C 74.809 101.297,75.468 101.333,79.245 101.333 L 83.667 101.333 83.667 102.649 C 83.667 103.664,83.724 103.986,83.917 104.060 C 84.054 104.113,84.167 104.303,84.167 104.482 C 84.167 104.993,85.110 105.833,85.685 105.833 C 85.969 105.833,86.218 105.939,86.273 106.083 C 86.355 106.297,87.049 106.333,91.101 106.333 C 95.196 106.333,95.833 106.300,95.833 106.083 C 95.833 105.915,96.002 105.833,96.349 105.833 C 96.724 105.833,96.888 105.743,96.952 105.500 C 97.000 105.317,97.143 105.167,97.269 105.167 C 97.396 105.167,97.500 105.054,97.500 104.917 C 97.500 104.779,97.612 104.667,97.750 104.667 C 97.925 104.667,98.000 104.491,98.000 104.083 C 98.000 103.696,98.078 103.500,98.232 103.500 C 98.627 103.500,98.667 103.094,98.667 99.091 C 98.667 94.967,98.596 94.167,98.229 94.167 C 98.103 94.167,98.000 94.025,98.000 93.851 C 98.000 93.678,97.888 93.492,97.750 93.440 C 97.612 93.387,97.500 93.184,97.500 92.990 C 97.500 92.776,97.368 92.601,97.167 92.548 C 96.983 92.500,96.833 92.363,96.833 92.244 C 96.833 92.124,96.594 91.974,96.301 91.910 C 96.008 91.845,95.666 91.689,95.539 91.563 C 94.746 90.770,85.333 91.407,85.333 92.254 C 85.333 92.389,85.183 92.500,85.000 92.500 C 84.815 92.500,84.667 92.611,84.667 92.750 C 84.667 92.888,84.554 93.000,84.417 93.000 C 84.242 93.000,84.167 93.176,84.167 93.583 C 84.167 93.991,84.091 94.167,83.917 94.167 C 83.715 94.167,83.667 94.426,83.667 95.500 L 83.667 96.833 80.000 96.833 L 76.333 96.833 76.333 92.167 L 76.333 87.500 81.599 87.500 C 86.724 87.500,86.867 87.491,86.952 87.167 C 87.013 86.931,87.179 86.833,87.519 86.833 C 87.835 86.833,88.000 86.748,88.000 86.583 C 88.000 86.446,88.104 86.333,88.231 86.333 C 88.648 86.333,88.662 85.734,88.664 67.958 C 88.667 50.776,88.659 50.333,88.351 50.333 C 88.178 50.333,87.992 50.221,87.940 50.083 C 87.812 49.750,87.628 49.768,87.125 50.163 M35.813 52.780 C 35.228 53.301,33.344 55.152,31.625 56.895 C 27.506 61.069,27.454 60.241,32.137 64.947 C 36.597 69.431,36.984 69.704,37.881 68.998 C 39.077 68.058,38.733 67.415,35.083 63.771 C 33.479 62.169,32.167 60.766,32.167 60.652 C 32.167 60.538,33.548 59.051,35.236 57.347 C 38.418 54.137,38.703 53.725,38.343 52.857 C 38.191 52.489,37.287 51.833,36.932 51.833 C 36.901 51.833,36.397 52.259,35.813 52.780 M67.902 52.111 C 66.312 52.905,66.777 53.888,70.488 57.581 C 72.053 59.139,73.333 60.527,73.333 60.667 C 73.333 60.806,72.016 62.232,70.406 63.835 C 66.802 67.424,66.417 68.194,67.778 69.086 C 68.595 69.622,68.956 69.361,73.061 65.274 C 77.046 61.306,77.205 61.103,76.974 60.250 C 76.776 59.522,68.904 51.745,68.464 51.844 C 68.438 51.850,68.185 51.970,67.902 52.111 M49.593 53.355 C 49.345 53.551,49.073 53.869,48.988 54.064 C 48.903 54.258,48.762 54.529,48.673 54.667 C 48.585 54.804,48.318 55.329,48.080 55.833 C 47.842 56.337,47.507 56.975,47.334 57.250 C 47.162 57.525,46.667 58.462,46.234 59.333 C 45.800 60.204,45.393 60.954,45.329 61.000 C 45.264 61.046,45.159 61.252,45.095 61.458 C 45.030 61.665,44.916 61.833,44.840 61.833 C 44.765 61.833,44.651 62.039,44.588 62.291 C 44.525 62.542,44.405 62.830,44.322 62.930 C 44.156 63.131,43.047 65.208,42.306 66.706 C 41.705 67.921,41.712 68.079,42.400 68.767 C 43.441 69.808,44.208 69.340,45.444 66.910 C 46.676 64.486,46.711 64.422,46.828 64.333 C 46.888 64.287,47.294 63.538,47.731 62.667 C 48.980 60.176,50.056 58.130,50.495 57.411 C 51.841 55.204,52.105 53.920,51.333 53.328 C 50.785 52.907,50.151 52.917,49.593 53.355 M51.560 66.410 C 50.952 66.836,50.751 67.572,51.062 68.229 C 51.685 69.541,53.667 69.105,53.667 67.656 C 53.667 66.429,52.510 65.745,51.560 66.410 M56.496 66.756 C 56.005 67.551,56.147 68.395,56.833 68.750 C 57.767 69.233,58.692 68.946,58.954 68.093 C 59.435 66.523,57.344 65.385,56.496 66.756 M62.000 66.500 C 61.633 66.867,61.543 67.958,61.835 68.504 C 62.203 69.191,63.938 69.002,64.230 68.243 C 64.781 66.807,63.048 65.452,62.000 66.500 M17.741 73.880 C 17.681 74.038,17.489 74.167,17.316 74.167 C 16.880 74.167,16.815 86.106,17.250 86.273 C 17.387 86.326,17.500 86.473,17.500 86.601 C 17.500 86.755,17.696 86.833,18.083 86.833 C 18.556 86.833,18.667 86.897,18.667 87.167 C 18.667 87.493,18.778 87.500,23.917 87.500 L 29.167 87.500 29.167 92.167 L 29.167 96.833 25.583 96.833 L 22.000 96.833 22.000 95.500 C 22.000 94.278,21.972 94.167,21.667 94.167 C 21.397 94.167,21.333 94.056,21.333 93.583 C 21.333 93.176,21.258 93.000,21.083 93.000 C 20.946 93.000,20.833 92.888,20.833 92.750 C 20.833 92.612,20.721 92.500,20.583 92.500 C 20.446 92.500,20.333 92.405,20.333 92.289 C 20.333 91.411,10.771 90.753,9.949 91.575 C 9.816 91.708,9.504 91.868,9.257 91.930 C 9.009 91.992,8.767 92.146,8.719 92.271 C 8.670 92.397,8.527 92.500,8.399 92.500 C 8.271 92.500,8.167 92.612,8.167 92.750 C 8.167 92.888,8.017 93.150,7.833 93.333 C 7.650 93.517,7.500 93.771,7.500 93.899 C 7.500 94.027,7.388 94.174,7.250 94.227 C 7.036 94.309,7.000 94.986,7.000 98.911 C 7.000 102.879,7.034 103.500,7.250 103.500 C 7.425 103.500,7.500 103.676,7.500 104.083 C 7.500 104.491,7.575 104.667,7.750 104.667 C 7.888 104.667,8.000 104.779,8.000 104.917 C 8.000 105.056,8.148 105.167,8.333 105.167 C 8.556 105.167,8.667 105.278,8.667 105.500 C 8.667 105.757,8.778 105.833,9.149 105.833 C 9.424 105.833,9.672 105.941,9.727 106.083 C 9.809 106.297,10.494 106.333,14.477 106.333 C 18.460 106.333,19.145 106.297,19.227 106.083 C 19.280 105.946,19.494 105.832,19.703 105.831 C 20.329 105.827,20.833 105.642,20.833 105.415 C 20.833 105.298,20.946 105.159,21.083 105.106 C 21.221 105.054,21.333 104.858,21.333 104.672 C 21.333 104.486,21.483 104.183,21.667 104.000 C 21.937 103.730,22.000 103.444,22.000 102.500 L 22.000 101.333 26.417 101.333 C 30.231 101.333,30.833 101.299,30.833 101.083 C 30.833 100.915,31.002 100.833,31.349 100.833 C 31.724 100.833,31.888 100.743,31.952 100.500 C 32.000 100.317,32.105 100.167,32.186 100.167 C 32.514 100.167,33.000 99.470,33.000 99.000 C 33.000 98.611,33.074 98.500,33.333 98.500 C 33.660 98.500,33.667 98.389,33.667 93.000 L 33.667 87.500 42.292 87.513 C 47.035 87.520,50.823 87.564,50.708 87.610 C 50.414 87.729,50.406 97.006,50.700 97.300 C 50.856 97.456,50.541 97.500,49.283 97.500 C 47.679 97.500,47.000 97.742,47.000 98.314 C 47.000 98.395,46.850 98.500,46.667 98.548 C 46.483 98.596,46.333 98.755,46.333 98.901 C 46.333 99.047,46.221 99.167,46.083 99.167 C 45.946 99.167,45.833 99.307,45.833 99.480 C 45.833 99.652,45.721 99.886,45.583 100.000 C 45.372 100.176,45.333 100.936,45.333 104.937 C 45.333 109.030,45.367 109.667,45.583 109.667 C 45.750 109.667,45.833 109.833,45.833 110.167 C 45.833 110.500,45.917 110.667,46.083 110.667 C 46.221 110.667,46.333 110.786,46.333 110.932 C 46.333 111.078,46.483 111.237,46.667 111.285 C 46.850 111.333,47.000 111.476,47.000 111.603 C 47.000 111.795,47.965 111.833,52.750 111.833 C 57.750 111.833,58.500 111.801,58.500 111.583 C 58.500 111.444,58.648 111.333,58.833 111.333 C 59.056 111.333,59.167 111.222,59.167 111.000 C 59.167 110.815,59.278 110.667,59.417 110.667 C 59.581 110.667,59.667 110.502,59.667 110.186 C 59.667 109.846,59.764 109.680,60.000 109.618 C 60.519 109.483,60.519 100.519,60.000 100.000 C 59.817 99.817,59.667 99.554,59.667 99.417 C 59.667 99.279,59.554 99.167,59.417 99.167 C 59.278 99.167,59.167 99.019,59.167 98.833 C 59.167 98.648,59.056 98.500,58.917 98.500 C 58.779 98.500,58.667 98.418,58.667 98.318 C 58.667 97.762,57.926 97.511,56.266 97.506 C 54.677 97.500,54.625 97.489,54.891 97.195 C 55.322 96.718,55.308 87.932,54.875 87.680 C 54.670 87.561,55.669 87.509,58.224 87.505 C 61.722 87.500,61.868 87.487,61.952 87.167 C 62.000 86.983,62.143 86.833,62.269 86.833 C 62.396 86.833,62.500 86.730,62.500 86.604 C 62.500 86.477,62.619 86.275,62.765 86.155 C 63.003 85.957,62.995 85.922,62.685 85.808 C 62.496 85.737,62.133 85.306,61.879 84.849 C 61.264 83.745,63.217 83.838,40.714 83.836 C 21.077 83.833,20.675 83.827,20.506 83.511 C 20.402 83.317,20.333 81.735,20.333 79.536 C 20.333 75.357,20.276 75.157,18.847 74.401 C 18.442 74.187,18.052 73.917,17.981 73.802 C 17.884 73.645,17.824 73.665,17.741 73.880 M18.130 98.833 C 18.190 103.002,18.517 102.667,14.394 102.667 L 11.325 102.667 11.163 102.239 C 10.975 101.746,10.944 96.012,11.128 95.725 C 11.312 95.437,11.809 95.409,15.083 95.500 L 18.083 95.583 18.130 98.833 M94.375 95.616 C 94.570 95.725,94.525 101.974,94.327 102.344 C 94.058 102.848,88.172 102.838,87.667 102.333 C 87.376 102.043,87.106 95.840,87.375 95.635 C 87.398 95.617,88.767 95.560,90.417 95.507 C 93.210 95.417,94.062 95.441,94.375 95.616 M56.071 101.262 C 56.340 101.531,56.479 107.426,56.232 108.070 C 56.145 108.298,55.685 108.333,52.811 108.333 L 49.492 108.333 49.319 107.879 C 49.055 107.184,49.189 101.624,49.479 101.275 C 49.813 100.873,55.671 100.861,56.071 101.262 " stroke="none" fill="#080707" fill-rule="evenodd"></path><path id="path2" d="M49.667 7.375 L 49.667 10.500 52.750 10.500 L 55.833 10.500 55.833 7.375 L 55.833 4.250 52.750 4.250 L 49.667 4.250 49.667 7.375 M20.839 29.322 C 20.656 29.665,20.600 34.318,20.772 34.959 L 20.872 35.334 52.811 35.292 L 84.750 35.250 84.796 32.262 C 84.830 29.984,84.791 29.243,84.629 29.140 C 84.092 28.799,21.023 28.980,20.839 29.322 M68.190 30.333 C 68.778 30.333,69.500 31.314,69.500 32.112 C 69.500 34.226,66.627 34.687,65.838 32.700 C 65.357 31.490,66.520 29.917,67.639 30.264 C 67.761 30.302,68.009 30.333,68.190 30.333 M73.198 30.339 C 75.180 30.890,74.658 33.990,72.583 33.988 C 71.431 33.988,70.917 33.408,70.917 32.111 C 70.917 30.777,71.228 30.398,72.500 30.183 C 72.546 30.175,72.860 30.245,73.198 30.339 M78.190 30.333 C 78.778 30.333,79.500 31.314,79.500 32.112 C 79.500 34.226,76.627 34.687,75.838 32.700 C 75.357 31.490,76.520 29.917,77.639 30.264 C 77.761 30.302,78.009 30.333,78.190 30.333 M61.949 30.873 C 62.586 31.510,62.609 32.913,61.994 33.562 L 61.583 33.994 44.353 33.997 L 27.123 34.000 26.561 33.405 C 25.890 32.693,25.828 31.973,26.381 31.302 C 27.230 30.272,26.124 30.328,44.621 30.374 L 61.493 30.417 61.949 30.873 M188.229 52.744 C 188.159 52.926,187.896 53.000,187.316 53.000 C 186.722 53.000,186.409 53.091,186.167 53.333 C 185.960 53.540,185.611 53.667,185.250 53.667 C 184.843 53.667,184.667 53.742,184.667 53.917 C 184.667 54.070,184.511 54.167,184.264 54.167 C 183.761 54.167,183.312 54.331,183.406 54.482 C 183.444 54.545,183.282 54.612,183.045 54.632 C 182.808 54.651,182.509 54.817,182.381 55.000 C 182.253 55.183,181.965 55.333,181.741 55.333 C 181.490 55.333,181.333 55.429,181.333 55.583 C 181.333 55.721,181.188 55.833,181.010 55.833 C 180.832 55.833,180.637 55.913,180.577 56.010 C 180.517 56.108,180.287 56.256,180.067 56.339 C 179.847 56.423,179.667 56.606,179.667 56.746 C 179.667 56.886,179.554 57.000,179.417 57.000 C 179.279 57.000,179.167 57.112,179.167 57.250 C 179.167 57.387,179.054 57.500,178.917 57.500 C 178.779 57.500,178.667 57.612,178.667 57.750 C 178.667 57.889,178.519 58.000,178.333 58.000 C 178.031 58.000,177.919 58.178,177.984 58.554 C 177.998 58.630,177.926 58.641,177.826 58.579 C 177.723 58.515,177.604 58.618,177.553 58.817 C 177.502 59.009,177.357 59.167,177.231 59.167 C 177.104 59.167,177.000 59.270,177.000 59.397 C 177.000 59.524,176.850 59.667,176.667 59.715 C 176.483 59.763,176.333 59.922,176.333 60.068 C 176.333 60.214,176.221 60.333,176.083 60.333 C 175.946 60.333,175.833 60.446,175.833 60.583 C 175.833 60.721,175.721 60.833,175.583 60.833 C 175.446 60.833,175.342 60.890,175.353 60.958 C 175.449 61.568,175.303 62.000,175.000 62.000 C 174.778 62.000,174.667 62.111,174.667 62.333 C 174.667 62.517,174.573 62.648,174.458 62.625 C 174.334 62.600,174.229 62.801,174.198 63.125 C 174.165 63.461,174.054 63.667,173.906 63.667 C 173.751 63.667,173.667 63.844,173.667 64.172 C 173.667 64.466,173.563 64.717,173.418 64.773 C 173.281 64.825,173.207 64.930,173.254 65.006 C 173.300 65.082,173.263 65.191,173.169 65.248 C 173.076 65.306,173.000 65.566,173.000 65.825 C 173.000 66.091,172.891 66.340,172.750 66.394 C 172.564 66.465,172.500 66.762,172.500 67.560 C 172.500 68.358,172.436 68.655,172.250 68.727 C 172.035 68.809,172.000 69.579,172.000 74.245 C 172.000 78.953,172.033 79.667,172.250 79.667 C 172.445 79.667,172.500 79.889,172.500 80.672 C 172.500 81.412,172.566 81.702,172.750 81.773 C 172.904 81.832,173.000 82.086,173.000 82.434 C 173.000 82.935,173.114 83.069,173.510 83.030 C 173.561 83.025,173.621 83.330,173.643 83.707 C 173.688 84.474,173.787 84.715,174.001 84.583 C 174.080 84.534,174.169 84.739,174.198 85.039 C 174.226 85.338,174.318 85.558,174.402 85.527 C 174.604 85.451,174.879 85.958,174.749 86.168 C 174.693 86.259,174.801 86.333,174.990 86.333 C 175.258 86.333,175.333 86.440,175.333 86.816 C 175.333 87.090,175.441 87.339,175.583 87.394 C 175.721 87.446,175.833 87.604,175.833 87.745 C 175.833 87.885,175.946 88.000,176.083 88.000 C 176.221 88.000,176.333 88.112,176.333 88.250 C 176.333 88.389,176.481 88.500,176.667 88.500 C 176.889 88.500,177.000 88.611,177.000 88.833 C 177.000 89.019,177.111 89.167,177.250 89.167 C 177.387 89.167,177.500 89.279,177.500 89.417 C 177.500 89.554,177.612 89.667,177.750 89.667 C 177.887 89.667,178.000 89.779,178.000 89.917 C 178.000 90.056,178.148 90.167,178.333 90.167 C 178.556 90.167,178.667 90.278,178.667 90.500 C 178.667 90.683,178.771 90.833,178.899 90.833 C 179.027 90.833,179.174 90.946,179.227 91.083 C 179.283 91.229,179.533 91.333,179.828 91.333 C 180.166 91.333,180.333 91.416,180.333 91.583 C 180.333 91.721,180.437 91.833,180.564 91.833 C 180.691 91.833,180.834 91.983,180.882 92.167 C 180.945 92.409,181.109 92.500,181.484 92.500 C 181.832 92.500,182.000 92.582,182.000 92.750 C 182.000 92.925,182.176 93.000,182.583 93.000 C 182.961 93.000,183.152 93.073,183.125 93.208 C 183.101 93.327,183.287 93.440,183.554 93.471 C 183.813 93.500,184.169 93.669,184.346 93.846 C 184.536 94.036,184.896 94.167,185.232 94.167 C 185.581 94.167,185.834 94.262,185.894 94.417 C 185.965 94.603,186.262 94.667,187.060 94.667 C 187.858 94.667,188.155 94.730,188.227 94.917 C 188.310 95.133,189.146 95.167,194.346 95.167 C 199.610 95.167,200.357 95.135,200.274 94.919 C 200.221 94.782,200.232 94.679,200.298 94.688 C 201.088 94.806,202.500 94.632,202.500 94.417 C 202.500 94.231,202.696 94.167,203.266 94.167 C 203.891 94.167,204.047 94.106,204.118 93.833 C 204.184 93.583,204.346 93.500,204.769 93.500 C 205.160 93.500,205.333 93.423,205.333 93.250 C 205.333 93.083,205.500 93.000,205.833 93.000 C 206.167 93.000,206.333 92.917,206.333 92.750 C 206.333 92.582,206.502 92.500,206.849 92.500 C 207.224 92.500,207.388 92.409,207.452 92.167 C 207.500 91.983,207.643 91.833,207.769 91.833 C 207.896 91.833,208.000 91.729,208.000 91.601 C 208.000 91.474,208.191 91.322,208.423 91.263 C 208.656 91.205,208.801 91.082,208.744 90.991 C 208.688 90.900,208.704 90.842,208.779 90.862 C 209.103 90.950,209.638 90.628,209.725 90.293 C 209.777 90.094,209.867 89.978,209.924 90.035 C 210.052 90.163,210.680 89.555,210.951 89.038 C 211.109 88.739,211.109 88.678,210.951 88.757 C 210.841 88.813,210.881 88.750,211.042 88.619 C 211.202 88.487,211.333 88.294,211.333 88.190 C 211.333 88.085,211.483 88.000,211.667 88.000 C 211.850 88.000,212.000 87.920,212.000 87.821 C 212.000 87.723,212.112 87.530,212.250 87.393 C 212.387 87.255,212.500 86.961,212.500 86.738 C 212.500 86.489,212.596 86.333,212.750 86.333 C 212.905 86.333,213.000 86.177,213.000 85.922 C 213.000 85.606,213.065 85.535,213.279 85.617 C 213.490 85.699,213.532 85.657,213.451 85.446 C 213.392 85.292,213.416 85.167,213.505 85.167 C 213.594 85.167,213.667 85.054,213.667 84.917 C 213.667 84.779,213.739 84.667,213.828 84.667 C 213.917 84.667,213.942 84.542,213.883 84.389 C 213.812 84.203,213.841 84.151,213.972 84.232 C 214.108 84.317,214.167 84.151,214.167 83.677 C 214.167 83.186,214.236 83.000,214.417 83.000 C 214.591 83.000,214.667 82.824,214.667 82.417 C 214.667 82.031,214.745 81.833,214.897 81.833 C 215.148 81.833,215.327 81.340,215.331 80.639 C 215.335 79.914,215.165 79.667,214.667 79.667 C 214.408 79.667,214.160 79.556,214.106 79.417 C 214.050 79.271,213.801 79.167,213.505 79.167 C 213.185 79.167,213.000 79.082,213.000 78.935 C 213.000 78.803,212.751 78.657,212.417 78.594 C 212.096 78.534,211.833 78.417,211.833 78.333 C 211.833 78.186,210.721 77.895,210.446 77.970 C 210.370 77.991,210.357 77.931,210.415 77.836 C 210.476 77.737,210.307 77.620,210.020 77.562 C 209.743 77.507,209.389 77.320,209.233 77.148 C 209.076 76.975,208.735 76.833,208.474 76.833 C 208.164 76.833,208.000 76.747,208.000 76.583 C 208.000 76.389,207.779 76.333,207.013 76.333 C 205.921 76.333,205.888 76.375,205.802 77.864 C 205.783 78.202,205.688 78.464,205.592 78.447 C 205.495 78.430,205.394 78.690,205.366 79.025 C 205.330 79.461,205.224 79.656,204.991 79.717 C 204.758 79.778,204.667 79.947,204.667 80.318 C 204.667 80.665,204.585 80.833,204.417 80.833 C 204.260 80.833,204.167 80.991,204.167 81.255 C 204.167 81.487,204.054 81.720,203.917 81.773 C 203.779 81.826,203.667 82.011,203.667 82.184 C 203.667 82.358,203.583 82.500,203.482 82.500 C 203.226 82.500,202.506 83.204,202.503 83.458 C 202.501 83.573,202.387 83.667,202.250 83.667 C 202.112 83.667,202.000 83.750,202.000 83.851 C 202.000 84.067,201.149 84.769,200.962 84.708 C 200.891 84.685,200.833 84.779,200.833 84.917 C 200.833 85.054,200.721 85.167,200.583 85.167 C 200.446 85.167,200.183 85.317,200.000 85.500 C 199.817 85.683,199.562 85.833,199.434 85.833 C 199.307 85.833,199.159 85.946,199.106 86.083 C 199.044 86.247,198.784 86.333,198.352 86.333 C 197.600 86.333,197.131 86.475,197.249 86.665 C 197.294 86.737,196.477 86.808,195.436 86.822 C 193.865 86.844,193.525 86.804,193.443 86.591 C 193.371 86.405,193.107 86.333,192.495 86.333 C 191.968 86.333,191.686 86.270,191.751 86.165 C 191.858 85.992,191.741 85.932,190.952 85.759 C 190.696 85.703,190.528 85.590,190.578 85.509 C 190.628 85.427,190.444 85.311,190.168 85.250 C 189.892 85.190,189.667 85.034,189.667 84.903 C 189.667 84.773,189.554 84.667,189.417 84.667 C 189.279 84.667,189.167 84.554,189.167 84.417 C 189.167 84.278,189.019 84.167,188.833 84.167 C 188.648 84.167,188.500 84.056,188.500 83.917 C 188.500 83.779,188.393 83.667,188.261 83.667 C 188.130 83.667,187.975 83.516,187.916 83.331 C 187.857 83.146,187.740 83.038,187.655 83.091 C 187.570 83.143,187.500 83.032,187.500 82.843 C 187.500 82.654,187.396 82.500,187.269 82.500 C 187.143 82.500,187.000 82.350,186.952 82.167 C 186.904 81.983,186.745 81.833,186.599 81.833 C 186.415 81.833,186.333 81.680,186.333 81.333 C 186.333 81.000,186.250 80.833,186.083 80.833 C 185.909 80.833,185.833 80.657,185.833 80.250 C 185.833 79.843,185.758 79.667,185.583 79.667 C 185.397 79.667,185.333 79.470,185.333 78.901 C 185.333 78.276,185.272 78.120,185.000 78.048 C 184.542 77.928,184.469 70.167,184.927 70.167 C 185.069 70.167,185.143 70.097,185.090 70.012 C 185.038 69.926,185.071 69.809,185.164 69.752 C 185.257 69.694,185.333 69.397,185.333 69.091 C 185.333 68.751,185.430 68.498,185.583 68.440 C 185.755 68.374,185.833 68.106,185.833 67.589 C 185.833 67.028,185.898 66.833,186.083 66.833 C 186.221 66.833,186.333 66.729,186.333 66.601 C 186.333 66.473,186.451 66.324,186.594 66.269 C 186.737 66.214,186.808 66.093,186.751 66.001 C 186.694 65.909,186.726 65.833,186.823 65.833 C 186.921 65.833,187.000 65.683,187.000 65.500 C 187.000 65.315,187.111 65.167,187.250 65.167 C 187.387 65.167,187.500 65.054,187.500 64.917 C 187.500 64.779,187.612 64.667,187.750 64.667 C 187.887 64.667,188.000 64.554,188.000 64.417 C 188.000 64.279,188.125 64.167,188.278 64.167 C 188.431 64.167,188.509 64.120,188.452 64.063 C 188.323 63.934,188.744 63.500,188.998 63.500 C 189.102 63.500,189.137 63.420,189.076 63.322 C 189.016 63.224,189.124 63.103,189.317 63.053 C 189.509 63.002,189.667 62.857,189.667 62.731 C 189.667 62.604,189.812 62.500,189.989 62.500 C 190.166 62.500,190.358 62.350,190.417 62.167 C 190.484 61.954,190.669 61.833,190.928 61.833 C 191.177 61.833,191.333 61.737,191.333 61.583 C 191.333 61.366,192.222 61.210,192.875 61.314 C 192.944 61.324,193.000 61.221,193.000 61.083 C 193.000 60.709,198.963 60.709,199.106 61.083 C 199.166 61.238,199.419 61.333,199.768 61.333 C 200.159 61.333,200.333 61.410,200.333 61.583 C 200.333 61.737,200.489 61.833,200.739 61.833 C 200.998 61.833,201.182 61.954,201.250 62.167 C 201.308 62.350,201.501 62.500,201.678 62.500 C 201.855 62.500,202.000 62.612,202.000 62.750 C 202.000 62.887,202.112 63.000,202.250 63.000 C 202.387 63.000,202.500 63.112,202.500 63.250 C 202.500 63.387,202.604 63.500,202.731 63.500 C 202.857 63.500,203.000 63.650,203.048 63.833 C 203.096 64.017,203.255 64.167,203.401 64.167 C 203.547 64.167,203.667 64.279,203.667 64.417 C 203.667 64.554,203.779 64.667,203.917 64.667 C 204.054 64.667,204.158 64.723,204.147 64.792 C 204.065 65.310,204.200 65.833,204.417 65.833 C 204.660 65.833,204.737 66.022,204.676 66.471 C 204.660 66.593,204.801 66.733,204.990 66.782 C 205.251 66.851,205.333 67.007,205.333 67.436 L 205.333 68.000 209.500 68.000 L 213.667 68.000 213.667 60.500 L 213.667 53.000 209.750 53.000 L 205.833 53.000 205.833 54.167 C 205.833 55.296,205.820 55.333,205.422 55.333 C 205.146 55.333,205.039 55.260,205.096 55.110 C 205.151 54.967,204.994 54.831,204.662 54.735 C 204.376 54.651,204.150 54.508,204.160 54.417 C 204.170 54.325,203.894 54.211,203.547 54.164 C 203.169 54.113,202.933 53.996,202.958 53.873 C 202.987 53.731,202.740 53.667,202.167 53.667 C 201.444 53.667,201.333 53.622,201.333 53.333 C 201.333 53.041,201.222 53.000,200.431 53.000 C 199.856 53.000,199.503 52.924,199.458 52.792 C 199.343 52.445,188.362 52.398,188.229 52.744 M297.000 52.750 C 297.000 52.905,296.843 53.000,296.585 53.000 C 296.350 53.000,296.079 53.145,295.961 53.333 C 295.847 53.517,295.659 53.667,295.543 53.667 C 295.428 53.667,295.333 53.771,295.333 53.899 C 295.333 54.027,295.216 54.176,295.073 54.231 C 294.929 54.286,294.859 54.407,294.916 54.499 C 294.973 54.591,294.940 54.667,294.843 54.667 C 294.746 54.667,294.667 54.817,294.667 55.000 C 294.667 55.185,294.556 55.333,294.417 55.333 C 294.206 55.333,294.167 55.713,294.167 57.750 C 294.167 59.787,294.206 60.167,294.417 60.167 C 294.556 60.167,294.667 60.315,294.667 60.500 C 294.667 60.683,294.746 60.833,294.843 60.833 C 294.940 60.833,294.973 60.909,294.916 61.001 C 294.859 61.093,294.929 61.214,295.073 61.269 C 295.216 61.324,295.333 61.473,295.333 61.601 C 295.333 61.729,295.446 61.833,295.583 61.833 C 295.721 61.833,295.833 61.908,295.833 62.000 C 295.833 62.092,295.927 62.148,296.042 62.125 C 296.156 62.102,296.231 62.177,296.208 62.292 C 296.185 62.406,296.223 62.491,296.292 62.480 C 296.699 62.416,297.000 62.533,297.000 62.756 C 297.000 63.122,302.305 63.102,302.445 62.735 C 302.495 62.606,302.640 62.500,302.768 62.500 C 302.896 62.500,303.000 62.350,303.000 62.167 C 303.000 61.944,303.111 61.833,303.333 61.833 C 303.519 61.833,303.667 61.722,303.667 61.583 C 303.667 61.446,303.779 61.333,303.917 61.333 C 304.054 61.333,304.167 61.221,304.167 61.083 C 304.167 60.946,304.279 60.833,304.417 60.833 C 304.599 60.833,304.667 60.646,304.667 60.145 C 304.667 59.677,304.768 59.368,304.981 59.183 C 305.234 58.964,305.296 58.679,305.296 57.750 C 305.296 56.821,305.234 56.536,304.981 56.317 C 304.780 56.142,304.667 55.825,304.667 55.434 C 304.667 55.044,304.576 54.788,304.417 54.727 C 304.279 54.674,304.167 54.527,304.167 54.399 C 304.167 54.271,304.054 54.167,303.917 54.167 C 303.779 54.167,303.667 54.054,303.667 53.917 C 303.667 53.778,303.519 53.667,303.333 53.667 C 303.111 53.667,303.000 53.556,303.000 53.333 C 303.000 53.150,302.897 53.000,302.770 53.000 C 302.644 53.000,302.447 52.887,302.333 52.750 C 302.165 52.548,301.638 52.500,299.563 52.500 C 297.396 52.500,297.000 52.539,297.000 52.750 M269.167 56.582 L 269.167 60.167 271.417 60.167 L 273.667 60.167 273.667 64.083 C 273.667 67.972,273.622 68.265,273.107 67.750 C 272.970 67.612,272.777 67.500,272.679 67.500 C 272.580 67.500,272.500 67.429,272.500 67.342 C 272.500 67.005,271.694 66.333,271.290 66.333 C 271.059 66.333,270.828 66.226,270.777 66.095 C 270.727 65.963,270.438 65.832,270.135 65.803 C 269.831 65.774,269.599 65.666,269.618 65.563 C 269.700 65.120,262.200 65.101,261.712 65.542 C 261.535 65.702,261.153 65.833,260.862 65.833 C 260.503 65.833,260.333 65.914,260.333 66.083 C 260.333 66.250,260.167 66.333,259.833 66.333 C 259.510 66.333,259.333 66.418,259.333 66.572 C 259.333 66.703,259.183 66.858,259.000 66.917 C 258.817 66.975,258.667 67.130,258.667 67.261 C 258.667 67.416,258.489 67.500,258.161 67.500 C 257.866 67.500,257.616 67.604,257.560 67.750 C 257.508 67.887,257.360 68.000,257.232 68.000 C 257.104 68.000,257.000 68.150,257.000 68.333 C 257.000 68.522,256.889 68.667,256.745 68.667 C 256.604 68.667,256.432 68.822,256.361 69.012 C 256.291 69.202,256.162 69.350,256.075 69.339 C 255.988 69.329,255.891 69.492,255.859 69.702 C 255.827 69.912,255.696 70.143,255.567 70.217 C 255.439 70.290,255.333 70.459,255.333 70.592 C 255.333 70.725,255.224 70.833,255.091 70.833 C 254.946 70.833,254.805 71.067,254.739 71.417 C 254.676 71.751,254.531 72.000,254.398 72.000 C 254.239 72.000,254.167 72.210,254.167 72.672 C 254.167 73.115,254.082 73.376,253.917 73.440 C 253.738 73.508,253.667 73.787,253.667 74.415 C 253.667 75.154,253.614 75.308,253.333 75.382 C 253.010 75.466,253.000 75.609,253.000 80.150 C 253.000 84.650,253.013 84.839,253.333 85.039 C 253.591 85.199,253.667 85.427,253.667 86.040 C 253.667 86.634,253.729 86.833,253.917 86.833 C 254.101 86.833,254.167 87.027,254.167 87.575 C 254.167 87.994,254.259 88.375,254.379 88.450 C 254.495 88.523,254.681 88.790,254.792 89.042 C 254.902 89.294,255.069 89.500,255.163 89.500 C 255.257 89.500,255.333 89.650,255.333 89.833 C 255.333 90.019,255.444 90.167,255.583 90.167 C 255.722 90.167,255.833 90.315,255.833 90.499 C 255.833 90.681,255.983 90.924,256.167 91.039 C 256.350 91.153,256.500 91.379,256.500 91.540 C 256.500 91.701,256.612 91.833,256.750 91.833 C 256.887 91.833,257.000 91.897,257.000 91.974 C 257.000 92.332,257.791 93.000,258.214 93.000 C 258.505 93.000,258.667 93.089,258.667 93.250 C 258.667 93.388,258.774 93.500,258.905 93.500 C 259.037 93.500,259.192 93.650,259.250 93.833 C 259.324 94.067,259.502 94.167,259.845 94.167 C 260.168 94.167,260.333 94.251,260.333 94.417 C 260.333 94.591,260.509 94.667,260.917 94.667 C 261.324 94.667,261.500 94.742,261.500 94.917 C 261.500 95.132,262.037 95.167,265.333 95.167 C 268.630 95.167,269.167 95.132,269.167 94.917 C 269.167 94.737,269.350 94.667,269.813 94.667 C 270.184 94.667,270.548 94.560,270.667 94.417 C 270.781 94.279,270.959 94.167,271.064 94.167 C 271.168 94.167,271.347 94.017,271.461 93.833 C 271.579 93.645,271.850 93.500,272.085 93.500 C 272.343 93.500,272.500 93.405,272.500 93.250 C 272.500 93.112,272.612 93.000,272.750 93.000 C 272.887 93.000,273.000 92.896,273.000 92.769 C 273.000 92.643,273.150 92.500,273.333 92.452 C 273.643 92.371,273.667 92.447,273.667 93.516 L 273.667 94.667 280.833 94.667 L 288.000 94.667 288.000 91.083 L 288.000 87.500 285.834 87.500 L 283.668 87.500 283.626 70.292 L 283.583 53.083 276.375 53.040 L 269.167 52.996 269.167 56.582 M229.792 65.281 C 229.393 65.327,229.167 65.440,229.167 65.593 C 229.167 65.771,228.945 65.833,228.316 65.833 C 227.627 65.833,227.483 65.881,227.560 66.083 C 227.633 66.274,227.528 66.333,227.115 66.333 C 226.780 66.333,226.465 66.460,226.289 66.667 C 226.132 66.850,225.853 67.000,225.668 67.000 C 225.482 67.000,225.333 67.111,225.333 67.250 C 225.333 67.387,225.230 67.500,225.104 67.500 C 224.977 67.500,224.781 67.612,224.667 67.750 C 224.553 67.887,224.281 68.000,224.063 68.000 C 223.778 68.000,223.667 68.093,223.667 68.333 C 223.667 68.556,223.556 68.667,223.333 68.667 C 223.148 68.667,223.000 68.778,223.000 68.917 C 223.000 69.054,222.887 69.167,222.750 69.167 C 222.612 69.167,222.500 69.279,222.500 69.417 C 222.500 69.554,222.387 69.667,222.250 69.667 C 222.111 69.667,222.000 69.815,222.000 70.000 C 222.000 70.183,221.896 70.333,221.769 70.333 C 221.435 70.333,220.946 71.116,221.213 71.224 C 221.329 71.272,221.292 71.313,221.125 71.320 C 220.965 71.327,220.833 71.448,220.833 71.589 C 220.833 71.729,220.721 71.887,220.583 71.940 C 220.444 71.993,220.333 72.241,220.333 72.498 C 220.333 72.821,220.232 72.988,220.000 73.048 C 219.757 73.112,219.667 73.276,219.667 73.651 C 219.667 73.998,219.585 74.167,219.417 74.167 C 219.228 74.167,219.167 74.370,219.167 75.000 C 219.167 75.630,219.106 75.833,218.917 75.833 C 218.701 75.833,218.667 76.435,218.667 80.250 C 218.667 84.065,218.701 84.667,218.917 84.667 C 219.106 84.667,219.167 84.870,219.167 85.500 C 219.167 86.130,219.228 86.333,219.417 86.333 C 219.583 86.333,219.667 86.500,219.667 86.832 C 219.667 87.150,219.787 87.406,220.000 87.539 C 220.183 87.653,220.333 87.916,220.333 88.123 C 220.333 88.347,220.435 88.500,220.583 88.500 C 220.751 88.500,220.833 88.667,220.833 89.005 C 220.833 89.301,220.937 89.550,221.083 89.606 C 221.221 89.659,221.333 89.807,221.333 89.934 C 221.333 90.062,221.483 90.167,221.667 90.167 C 221.889 90.167,222.000 90.278,222.000 90.500 C 222.000 90.685,222.111 90.833,222.250 90.833 C 222.387 90.833,222.500 90.946,222.500 91.083 C 222.500 91.221,222.612 91.333,222.750 91.333 C 222.887 91.333,223.000 91.446,223.000 91.583 C 223.000 91.722,223.148 91.833,223.333 91.833 C 223.556 91.833,223.667 91.944,223.667 92.167 C 223.667 92.350,223.771 92.500,223.899 92.500 C 224.027 92.500,224.174 92.612,224.227 92.750 C 224.283 92.896,224.533 93.000,224.828 93.000 C 225.166 93.000,225.333 93.083,225.333 93.250 C 225.333 93.414,225.498 93.500,225.814 93.500 C 226.154 93.500,226.320 93.597,226.382 93.833 C 226.445 94.076,226.609 94.167,226.984 94.167 C 227.332 94.167,227.500 94.248,227.500 94.417 C 227.500 94.606,227.704 94.667,228.333 94.667 C 228.963 94.667,229.167 94.728,229.167 94.917 C 229.167 95.133,229.796 95.167,233.833 95.167 C 237.478 95.167,238.491 95.121,238.458 94.958 C 238.430 94.818,238.701 94.734,239.292 94.700 C 239.921 94.663,240.167 94.582,240.167 94.408 C 240.167 94.249,240.343 94.167,240.682 94.167 C 241.058 94.167,241.222 94.076,241.285 93.833 C 241.347 93.596,241.512 93.500,241.858 93.500 C 242.136 93.500,242.385 93.393,242.440 93.250 C 242.492 93.112,242.640 93.000,242.768 93.000 C 242.896 93.000,243.000 92.888,243.000 92.750 C 243.000 92.611,243.148 92.500,243.332 92.500 C 243.514 92.500,243.758 92.350,243.872 92.167 C 243.987 91.983,244.212 91.833,244.373 91.833 C 244.535 91.833,244.667 91.721,244.667 91.583 C 244.667 91.446,244.738 91.333,244.826 91.333 C 245.068 91.333,245.851 90.497,245.755 90.342 C 245.709 90.266,245.820 90.166,246.002 90.118 C 246.225 90.059,246.333 89.890,246.333 89.599 C 246.333 89.322,246.425 89.167,246.589 89.167 C 246.729 89.167,246.892 89.035,246.951 88.875 C 247.010 88.715,247.158 88.523,247.279 88.450 C 247.401 88.377,247.500 88.141,247.500 87.926 C 247.500 87.711,247.596 87.499,247.713 87.454 C 247.830 87.409,247.945 87.126,247.968 86.826 C 247.991 86.526,248.139 86.179,248.296 86.056 C 248.561 85.850,248.558 85.839,248.250 85.921 C 247.977 85.994,247.984 85.975,248.292 85.813 C 248.591 85.656,248.667 85.472,248.667 84.909 C 248.667 84.435,248.749 84.171,248.917 84.106 C 249.129 84.025,249.167 83.432,249.167 80.190 C 249.167 76.947,249.129 76.354,248.917 76.273 C 248.756 76.211,248.666 75.952,248.664 75.547 C 248.661 74.672,248.503 74.167,248.231 74.167 C 248.078 74.167,248.000 73.969,248.000 73.583 C 248.000 73.176,247.925 73.000,247.750 73.000 C 247.583 73.000,247.500 72.833,247.500 72.500 C 247.500 72.167,247.417 72.000,247.250 72.000 C 247.111 72.000,247.000 71.852,247.000 71.667 C 247.000 71.444,246.889 71.333,246.667 71.333 C 246.407 71.333,246.333 71.222,246.333 70.833 C 246.333 70.500,246.250 70.333,246.083 70.333 C 245.944 70.333,245.833 70.185,245.833 70.000 C 245.833 69.815,245.722 69.667,245.583 69.667 C 245.446 69.667,245.333 69.554,245.333 69.417 C 245.333 69.278,245.185 69.167,245.000 69.167 C 244.815 69.167,244.667 69.056,244.667 68.917 C 244.667 68.779,244.563 68.667,244.436 68.667 C 244.309 68.667,244.166 68.517,244.118 68.333 C 244.067 68.139,243.891 68.000,243.694 68.000 C 243.509 68.000,243.245 67.887,243.107 67.750 C 242.970 67.612,242.777 67.500,242.679 67.500 C 242.580 67.500,242.500 67.396,242.500 67.269 C 242.500 67.136,242.251 66.990,241.917 66.928 C 241.567 66.862,241.333 66.721,241.333 66.576 C 241.333 66.426,241.169 66.333,240.905 66.333 C 240.669 66.333,240.364 66.221,240.226 66.083 C 240.089 65.946,239.685 65.833,239.330 65.833 C 238.887 65.833,238.632 65.741,238.520 65.542 C 238.359 65.253,231.728 65.055,229.792 65.281 M330.059 65.338 C 329.862 65.414,329.651 65.557,329.591 65.655 C 329.530 65.753,329.182 65.833,328.818 65.833 C 328.384 65.833,328.123 65.919,328.060 66.083 C 328.006 66.226,327.757 66.333,327.482 66.333 C 327.183 66.333,327.000 66.421,327.000 66.564 C 327.000 66.778,326.527 66.992,326.042 66.998 C 325.914 66.999,325.833 66.773,325.833 66.417 L 325.833 65.833 318.583 65.833 L 311.333 65.833 311.333 69.239 C 311.333 73.802,311.162 73.500,313.746 73.500 L 315.833 73.500 315.833 80.500 L 315.833 87.500 313.583 87.500 L 311.333 87.500 311.333 91.083 L 311.333 94.667 320.500 94.667 L 329.667 94.667 329.667 91.083 L 329.667 87.500 327.750 87.500 L 325.833 87.500 325.833 81.333 C 325.833 75.963,325.866 75.167,326.083 75.167 C 326.221 75.167,326.333 75.054,326.333 74.917 C 326.333 74.742,326.509 74.667,326.917 74.667 C 327.324 74.667,327.500 74.591,327.500 74.417 C 327.500 74.246,327.685 74.160,328.083 74.146 C 329.029 74.112,329.083 74.095,329.083 73.833 C 329.083 73.649,329.314 73.570,329.958 73.533 C 330.660 73.493,330.833 73.534,330.833 73.741 C 330.833 73.884,330.941 74.000,331.072 74.000 C 331.203 74.000,331.358 74.150,331.417 74.333 C 331.475 74.517,331.626 74.667,331.754 74.667 C 331.923 74.667,331.998 74.967,332.034 75.792 C 332.069 76.583,332.145 76.904,332.292 76.875 C 332.406 76.852,332.491 76.890,332.480 76.958 C 332.469 77.027,332.469 81.040,332.480 85.875 L 332.500 94.667 339.750 94.667 L 347.000 94.667 347.000 91.083 L 347.000 87.500 344.750 87.500 L 342.500 87.500 342.500 80.268 C 342.500 73.993,342.467 73.023,342.250 72.940 C 342.066 72.869,342.000 72.578,342.000 71.839 C 342.000 71.286,341.927 70.833,341.839 70.833 C 341.750 70.833,341.721 70.718,341.776 70.577 C 341.838 70.413,341.791 70.337,341.645 70.368 C 341.490 70.401,341.400 70.216,341.365 69.792 C 341.331 69.383,341.230 69.167,341.073 69.167 C 340.917 69.167,340.833 68.990,340.833 68.661 C 340.833 68.366,340.729 68.116,340.583 68.060 C 340.446 68.008,340.333 67.860,340.333 67.732 C 340.333 67.604,340.183 67.500,340.000 67.500 C 339.815 67.500,339.667 67.389,339.667 67.250 C 339.667 67.112,339.554 67.000,339.417 67.000 C 339.278 67.000,339.167 66.852,339.167 66.667 C 339.167 66.363,338.814 66.225,338.279 66.318 C 338.204 66.331,338.185 66.273,338.237 66.188 C 338.351 66.003,337.953 65.833,337.403 65.833 C 337.170 65.833,337.000 65.736,337.000 65.602 C 337.000 65.176,331.057 64.950,330.059 65.338 M357.220 65.278 C 357.021 65.319,356.768 65.461,356.658 65.593 C 356.549 65.725,356.206 65.833,355.896 65.833 C 355.507 65.833,355.333 65.910,355.333 66.083 C 355.333 66.241,355.175 66.333,354.904 66.333 C 354.645 66.333,354.267 66.540,353.954 66.854 C 353.668 67.140,353.224 67.447,352.967 67.536 C 352.710 67.626,352.500 67.802,352.500 67.928 C 352.500 68.062,352.397 68.117,352.250 68.060 C 352.077 67.994,352.000 68.072,352.000 68.316 C 352.000 68.509,351.937 68.667,351.859 68.667 C 351.553 68.667,350.833 69.447,350.833 69.779 C 350.833 69.973,350.721 70.174,350.583 70.227 C 350.446 70.280,350.333 70.438,350.333 70.578 C 350.333 70.718,350.216 70.833,350.073 70.833 C 349.931 70.833,349.860 70.908,349.917 71.000 C 349.973 71.092,349.940 71.167,349.843 71.167 C 349.746 71.167,349.667 71.354,349.667 71.583 C 349.667 71.843,349.572 72.000,349.417 72.000 C 349.243 72.000,349.167 72.174,349.167 72.570 C 349.167 73.266,349.016 73.696,348.816 73.573 C 348.734 73.522,348.667 73.889,348.667 74.387 C 348.667 75.154,348.615 75.308,348.333 75.382 C 348.010 75.466,348.000 75.609,348.000 80.278 C 348.000 84.906,348.013 85.094,348.333 85.295 C 348.601 85.462,348.667 85.683,348.667 86.423 C 348.667 87.088,348.736 87.370,348.917 87.440 C 349.059 87.494,349.167 87.743,349.167 88.018 C 349.167 88.335,349.252 88.500,349.417 88.500 C 349.585 88.500,349.667 88.668,349.667 89.016 C 349.667 89.391,349.757 89.555,350.000 89.618 C 350.237 89.680,350.333 89.846,350.333 90.191 C 350.333 90.469,350.440 90.718,350.583 90.773 C 350.721 90.826,350.833 90.973,350.833 91.101 C 350.833 91.229,350.946 91.333,351.083 91.333 C 351.221 91.333,351.333 91.446,351.333 91.583 C 351.333 91.722,351.481 91.833,351.667 91.833 C 351.889 91.833,352.000 91.944,352.000 92.167 C 352.000 92.352,352.111 92.500,352.250 92.500 C 352.387 92.500,352.500 92.612,352.500 92.750 C 352.500 92.888,352.613 93.000,352.750 93.000 C 352.887 93.000,353.000 93.112,353.000 93.250 C 353.000 93.388,353.123 93.500,353.273 93.500 C 353.424 93.500,353.649 93.631,353.774 93.792 C 353.986 94.065,353.994 94.063,353.889 93.764 C 353.811 93.544,353.837 93.483,353.972 93.566 C 354.079 93.632,354.167 93.794,354.167 93.927 C 354.167 94.059,354.282 94.167,354.422 94.167 C 354.562 94.167,354.720 94.279,354.773 94.417 C 354.838 94.586,355.104 94.667,355.601 94.667 C 356.141 94.667,356.333 94.732,356.333 94.917 C 356.333 95.292,363.413 95.292,363.623 94.917 C 363.707 94.766,364.036 94.656,364.449 94.640 C 364.947 94.621,365.112 94.552,365.050 94.390 C 364.992 94.239,365.104 94.167,365.399 94.167 C 365.638 94.167,365.983 94.017,366.167 93.833 C 366.350 93.650,366.613 93.500,366.750 93.500 C 366.887 93.500,367.000 93.388,367.000 93.250 C 367.000 93.094,367.158 93.000,367.422 93.000 C 367.654 93.000,367.887 92.888,367.940 92.750 C 368.092 92.354,368.325 92.460,368.216 92.875 C 368.161 93.081,368.086 94.037,368.047 95.000 C 367.996 96.289,367.914 96.785,367.739 96.883 C 367.607 96.956,367.500 97.238,367.500 97.508 C 367.500 97.834,367.416 98.000,367.250 98.000 C 367.113 98.000,367.000 98.104,367.000 98.231 C 367.000 98.357,366.850 98.500,366.667 98.548 C 366.483 98.596,366.333 98.755,366.333 98.901 C 366.333 99.047,366.221 99.167,366.083 99.167 C 365.946 99.167,365.833 99.279,365.833 99.417 C 365.833 99.590,365.659 99.667,365.262 99.667 C 364.948 99.667,364.578 99.779,364.440 99.917 C 364.243 100.114,363.717 100.167,361.929 100.167 C 360.029 100.167,359.667 100.127,359.667 99.917 C 359.667 99.728,359.463 99.667,358.833 99.667 C 358.204 99.667,358.000 99.606,358.000 99.417 C 358.000 99.242,357.824 99.167,357.417 99.167 C 357.024 99.167,356.833 99.089,356.833 98.930 C 356.833 98.800,356.615 98.645,356.347 98.586 C 356.080 98.528,355.820 98.372,355.769 98.240 C 355.628 97.873,354.349 97.916,354.233 98.292 C 354.183 98.452,354.071 98.696,353.983 98.833 C 353.895 98.971,353.781 99.208,353.730 99.360 C 353.678 99.512,353.493 99.673,353.318 99.719 C 353.143 99.765,353.000 99.922,353.000 100.068 C 353.000 100.214,352.887 100.333,352.750 100.333 C 352.583 100.333,352.500 100.500,352.500 100.833 C 352.500 101.167,352.417 101.333,352.250 101.333 C 352.112 101.333,352.000 101.481,352.000 101.661 C 352.000 101.884,351.920 101.959,351.751 101.894 C 351.601 101.837,351.458 101.921,351.389 102.108 C 351.326 102.278,351.176 102.477,351.054 102.550 C 350.933 102.623,350.833 102.867,350.833 103.092 C 350.833 103.344,350.738 103.500,350.583 103.500 C 349.887 103.500,350.434 105.581,351.208 105.878 C 351.369 105.939,351.500 106.067,351.500 106.161 C 351.500 106.256,351.717 106.333,351.982 106.333 C 352.257 106.333,352.506 106.441,352.560 106.583 C 352.626 106.755,352.894 106.833,353.411 106.833 C 353.946 106.833,354.167 106.901,354.167 107.066 C 354.167 107.363,354.391 107.437,355.417 107.479 C 355.903 107.499,356.325 107.611,356.429 107.748 C 356.708 108.115,368.360 108.120,368.663 107.754 C 368.780 107.613,369.143 107.499,369.479 107.498 C 370.330 107.495,370.833 107.333,370.833 107.064 C 370.833 106.912,371.031 106.833,371.417 106.833 C 371.824 106.833,372.000 106.758,372.000 106.583 C 372.000 106.417,372.167 106.333,372.500 106.333 C 372.833 106.333,373.000 106.250,373.000 106.083 C 373.000 105.946,373.110 105.833,373.244 105.833 C 373.378 105.833,373.569 105.683,373.667 105.500 C 373.771 105.305,374.016 105.167,374.256 105.167 C 374.510 105.167,374.667 105.071,374.667 104.917 C 374.667 104.779,374.779 104.667,374.917 104.667 C 375.054 104.667,375.167 104.557,375.167 104.423 C 375.167 104.288,375.317 104.098,375.500 104.000 C 375.695 103.896,375.833 103.651,375.833 103.411 C 375.833 103.157,375.929 103.000,376.083 103.000 C 376.222 103.000,376.333 102.852,376.333 102.667 C 376.333 102.483,376.440 102.333,376.570 102.333 C 376.700 102.333,376.855 102.114,376.914 101.845 C 376.973 101.576,377.129 101.267,377.261 101.158 C 377.392 101.049,377.500 100.695,377.500 100.373 C 377.500 100.051,377.609 99.703,377.742 99.602 C 377.918 99.467,377.995 98.978,378.025 97.802 C 378.048 96.914,378.128 96.226,378.202 96.272 C 378.277 96.318,378.294 96.445,378.240 96.553 C 378.186 96.661,378.264 96.600,378.413 96.417 C 378.576 96.217,378.675 95.817,378.660 95.417 C 378.647 95.050,378.643 89.969,378.651 84.125 L 378.667 73.500 380.683 73.500 C 382.269 73.500,382.799 73.441,383.171 73.221 L 383.644 72.942 383.660 69.388 L 383.677 65.833 376.172 65.833 L 368.667 65.833 368.667 66.917 C 368.667 68.021,368.551 68.194,368.107 67.750 C 367.970 67.612,367.777 67.500,367.679 67.500 C 367.580 67.500,367.500 67.429,367.500 67.342 C 367.500 67.005,366.694 66.333,366.290 66.333 C 366.059 66.333,365.828 66.226,365.777 66.095 C 365.727 65.963,365.438 65.832,365.135 65.803 C 364.821 65.773,364.600 65.665,364.621 65.552 C 364.642 65.444,364.530 65.343,364.371 65.329 C 363.544 65.256,357.531 65.213,357.220 65.278 M290.333 69.467 C 290.333 73.830,290.140 73.500,292.700 73.500 L 294.667 73.500 294.667 80.500 L 294.667 87.500 292.500 87.500 L 290.333 87.500 290.333 91.085 L 290.333 94.669 299.708 94.626 L 309.083 94.583 309.128 91.042 L 309.173 87.500 306.920 87.500 L 304.667 87.500 304.667 76.667 L 304.667 65.833 297.500 65.833 L 290.333 65.833 290.333 69.467 M234.833 73.250 C 234.833 73.430,235.017 73.500,235.489 73.500 C 235.998 73.500,236.168 73.574,236.250 73.833 C 236.308 74.017,236.501 74.167,236.678 74.167 C 236.855 74.167,237.000 74.279,237.000 74.417 C 237.000 74.554,237.112 74.667,237.250 74.667 C 237.415 74.667,237.500 74.831,237.500 75.149 C 237.500 75.424,237.607 75.672,237.750 75.727 C 237.887 75.780,238.000 75.975,238.000 76.160 C 238.000 76.345,238.150 76.591,238.333 76.705 C 238.627 76.889,238.667 77.094,238.667 78.423 C 238.667 79.401,238.740 80.013,238.875 80.158 C 239.042 80.337,239.042 80.359,238.875 80.265 C 238.714 80.174,238.667 80.528,238.667 81.812 C 238.667 83.331,238.637 83.487,238.333 83.583 C 238.104 83.656,238.000 83.836,238.000 84.160 C 238.000 84.425,237.891 84.673,237.750 84.727 C 237.604 84.783,237.500 85.033,237.500 85.328 C 237.500 85.666,237.417 85.833,237.250 85.833 C 237.112 85.833,237.000 85.946,237.000 86.083 C 237.000 86.316,236.710 86.411,236.206 86.345 C 236.090 86.330,235.951 86.434,235.897 86.576 C 235.842 86.717,235.656 86.833,235.482 86.833 C 235.309 86.833,235.017 86.983,234.833 87.167 C 234.420 87.580,233.000 87.651,233.000 87.258 C 233.000 87.112,232.766 86.971,232.417 86.906 C 232.096 86.845,231.833 86.736,231.833 86.661 C 231.833 86.587,231.608 86.477,231.333 86.417 C 231.058 86.356,230.833 86.200,230.833 86.070 C 230.833 85.940,230.727 85.833,230.597 85.833 C 230.466 85.833,230.312 85.615,230.253 85.347 C 230.194 85.080,230.038 84.820,229.906 84.769 C 229.775 84.719,229.667 84.530,229.667 84.350 C 229.667 84.171,229.554 83.911,229.417 83.774 C 229.269 83.626,229.167 83.219,229.167 82.780 C 229.167 82.272,229.087 82.005,228.917 81.940 C 228.554 81.801,228.547 78.500,228.909 78.500 C 229.092 78.500,229.163 78.226,229.201 77.375 C 229.235 76.584,229.312 76.262,229.458 76.292 C 229.593 76.319,229.667 76.128,229.667 75.750 C 229.667 75.383,229.747 75.167,229.883 75.167 C 230.002 75.167,230.283 74.945,230.508 74.674 C 230.733 74.403,231.010 74.178,231.125 74.174 C 231.240 74.170,231.333 74.017,231.333 73.833 C 231.333 73.563,231.444 73.500,231.917 73.500 C 232.324 73.500,232.500 73.425,232.500 73.250 C 232.500 73.052,232.741 73.000,233.667 73.000 C 234.593 73.000,234.833 73.052,234.833 73.250 M270.000 73.833 C 270.183 74.017,270.446 74.167,270.583 74.167 C 270.721 74.167,270.833 74.279,270.833 74.417 C 270.833 74.554,270.946 74.667,271.083 74.667 C 271.221 74.667,271.333 74.779,271.333 74.917 C 271.333 75.056,271.481 75.167,271.667 75.167 C 271.889 75.167,272.000 75.278,272.000 75.500 C 272.000 75.685,272.111 75.833,272.250 75.833 C 272.407 75.833,272.500 75.992,272.500 76.262 C 272.500 76.498,272.612 76.803,272.750 76.940 C 272.894 77.084,273.008 77.522,273.019 77.970 C 273.030 78.399,273.056 78.825,273.077 78.917 C 273.098 79.008,273.127 79.215,273.141 79.375 C 273.155 79.535,273.279 79.667,273.417 79.667 C 273.590 79.667,273.667 79.841,273.667 80.232 C 273.667 80.581,273.571 80.834,273.417 80.894 C 273.279 80.946,273.168 81.086,273.169 81.203 C 273.171 81.352,273.220 81.341,273.333 81.167 C 273.446 80.992,273.496 80.981,273.497 81.130 C 273.499 81.248,273.387 81.387,273.250 81.440 C 273.067 81.510,273.000 81.799,273.000 82.523 C 273.000 83.247,272.933 83.536,272.750 83.606 C 272.607 83.661,272.500 83.910,272.500 84.184 C 272.500 84.502,272.415 84.667,272.250 84.667 C 272.083 84.667,272.000 84.834,272.000 85.172 C 272.000 85.501,271.898 85.714,271.708 85.784 C 271.548 85.843,271.357 85.991,271.283 86.112 C 271.210 86.234,270.966 86.333,270.742 86.333 C 270.490 86.333,270.333 86.429,270.333 86.583 C 270.333 86.815,270.125 86.912,269.768 86.845 C 269.391 86.775,268.667 87.050,268.667 87.263 C 268.667 87.393,268.517 87.500,268.333 87.500 C 268.150 87.500,268.000 87.390,268.000 87.255 C 268.000 87.114,267.901 87.048,267.767 87.100 C 267.639 87.149,267.484 87.109,267.424 87.011 C 267.363 86.913,267.101 86.833,266.841 86.833 C 266.575 86.833,266.327 86.724,266.273 86.583 C 266.220 86.446,265.987 86.333,265.755 86.333 C 265.491 86.333,265.333 86.240,265.333 86.083 C 265.333 85.944,265.185 85.833,265.000 85.833 C 264.698 85.833,264.561 85.489,264.648 84.954 C 264.660 84.882,264.557 84.781,264.418 84.728 C 264.280 84.674,264.167 84.489,264.167 84.316 C 264.167 84.142,264.087 84.000,263.990 84.000 C 263.893 84.000,263.856 83.931,263.908 83.848 C 263.960 83.764,263.922 83.668,263.824 83.636 C 263.727 83.603,263.642 83.262,263.637 82.877 C 263.630 82.343,263.553 82.153,263.314 82.077 C 262.816 81.919,262.839 78.581,263.338 78.450 C 263.524 78.402,263.665 78.299,263.652 78.223 C 263.546 77.622,263.697 76.833,263.917 76.833 C 264.054 76.833,264.158 76.777,264.147 76.708 C 264.059 76.149,264.192 75.687,264.417 75.773 C 264.590 75.840,264.667 75.762,264.667 75.518 C 264.667 75.311,264.773 75.167,264.927 75.167 C 265.069 75.167,265.147 75.103,265.098 75.024 C 265.050 74.946,265.196 74.798,265.422 74.695 C 265.648 74.592,265.833 74.431,265.833 74.337 C 265.833 74.243,265.946 74.167,266.083 74.167 C 266.222 74.167,266.333 74.019,266.333 73.833 C 266.333 73.522,266.444 73.500,268.000 73.500 C 269.444 73.500,269.711 73.544,270.000 73.833 M365.205 73.833 C 365.320 74.017,365.553 74.167,365.725 74.167 C 365.933 74.167,366.004 74.249,365.940 74.417 C 365.883 74.563,365.937 74.667,366.071 74.667 C 366.196 74.667,366.341 74.779,366.394 74.917 C 366.446 75.054,366.604 75.167,366.745 75.167 C 366.889 75.167,367.000 75.312,367.000 75.500 C 367.000 75.685,367.111 75.833,367.250 75.833 C 367.417 75.833,367.500 76.000,367.500 76.333 C 367.500 76.667,367.583 76.833,367.750 76.833 C 367.936 76.833,368.003 77.038,368.011 77.625 C 368.030 78.883,368.133 79.397,368.409 79.599 C 368.749 79.847,368.746 80.767,368.406 80.898 C 368.263 80.953,368.189 81.068,368.242 81.154 C 368.295 81.240,368.263 81.357,368.169 81.415 C 368.076 81.473,368.000 81.957,368.000 82.492 C 368.000 83.203,367.933 83.490,367.750 83.560 C 367.604 83.616,367.500 83.866,367.500 84.161 C 367.500 84.499,367.417 84.667,367.250 84.667 C 367.113 84.667,367.000 84.774,367.000 84.905 C 367.000 85.037,366.850 85.192,366.667 85.250 C 366.483 85.308,366.333 85.463,366.333 85.595 C 366.333 85.726,366.221 85.833,366.083 85.833 C 365.946 85.833,365.833 85.946,365.833 86.083 C 365.833 86.315,365.544 86.411,365.042 86.346 C 364.927 86.331,364.833 86.435,364.833 86.576 C 364.833 86.969,361.731 86.994,361.417 86.603 C 361.325 86.489,361.114 86.345,360.948 86.283 C 360.782 86.220,360.692 86.093,360.749 86.001 C 360.806 85.909,360.744 85.833,360.611 85.833 C 360.478 85.833,360.326 85.721,360.273 85.583 C 360.220 85.446,360.062 85.333,359.922 85.333 C 359.782 85.333,359.667 85.218,359.667 85.078 C 359.667 84.938,359.554 84.780,359.417 84.727 C 359.279 84.674,359.167 84.441,359.167 84.209 C 359.167 83.977,359.060 83.703,358.929 83.602 C 358.799 83.500,358.654 83.010,358.608 82.513 C 358.554 81.934,358.430 81.557,358.262 81.463 C 357.906 81.264,357.877 79.000,358.231 79.000 C 358.510 79.000,358.661 78.491,358.664 77.542 C 358.666 77.038,358.736 76.833,358.906 76.833 C 359.054 76.833,359.165 76.627,359.198 76.292 C 359.229 75.967,359.334 75.767,359.458 75.792 C 359.580 75.816,359.667 75.662,359.667 75.422 C 359.667 75.125,359.736 75.037,359.917 75.106 C 360.075 75.167,360.167 75.104,360.167 74.934 C 360.167 74.787,360.282 74.667,360.422 74.667 C 360.562 74.667,360.720 74.554,360.773 74.417 C 360.826 74.279,360.973 74.167,361.101 74.167 C 361.229 74.167,361.333 74.017,361.333 73.833 C 361.333 73.520,361.444 73.500,363.165 73.500 C 364.817 73.500,365.018 73.533,365.205 73.833 M49.667 104.792 L 49.667 107.917 52.750 107.917 L 55.833 107.917 55.833 104.792 L 55.833 101.667 52.750 101.667 L 49.667 101.667 49.667 104.792 " stroke="none" fill="#346cfb" fill-rule="evenodd"></path><path id="path3" d="M120.333 10.499 L 120.333 18.000 124.167 18.000 L 128.000 18.000 128.000 14.417 L 128.000 10.833 132.750 10.833 C 136.904 10.833,137.500 10.865,137.500 11.089 C 137.500 11.229,137.387 11.387,137.250 11.440 C 137.112 11.492,137.000 11.623,137.000 11.731 C 137.000 11.838,136.850 12.054,136.667 12.211 C 136.483 12.368,136.333 12.602,136.333 12.731 C 136.333 12.859,136.221 13.008,136.083 13.060 C 135.946 13.113,135.833 13.263,135.833 13.394 C 135.833 13.524,135.721 13.674,135.583 13.727 C 135.446 13.780,135.333 14.004,135.333 14.225 C 135.333 14.488,135.217 14.658,135.000 14.715 C 134.817 14.763,134.667 14.922,134.667 15.068 C 134.667 15.214,134.554 15.333,134.417 15.333 C 134.279 15.333,134.167 15.475,134.167 15.649 C 134.167 15.822,134.054 16.008,133.917 16.060 C 133.779 16.113,133.667 16.346,133.667 16.578 C 133.667 16.810,133.573 17.001,133.458 17.003 C 133.100 17.008,132.500 17.777,132.500 18.232 C 132.500 18.507,132.408 18.667,132.250 18.667 C 132.112 18.667,132.000 18.779,132.000 18.917 C 132.000 19.054,131.900 19.167,131.778 19.167 C 131.655 19.167,131.374 19.539,131.153 19.994 C 130.931 20.448,130.656 20.823,130.542 20.827 C 130.427 20.830,130.333 20.983,130.333 21.167 C 130.333 21.350,130.227 21.500,130.097 21.500 C 129.966 21.500,129.810 21.725,129.750 22.000 C 129.690 22.275,129.534 22.500,129.403 22.500 C 129.273 22.500,129.167 22.613,129.167 22.750 C 129.167 22.887,129.090 23.000,128.996 23.000 C 128.902 23.000,128.754 23.188,128.667 23.417 C 128.580 23.646,128.433 23.833,128.341 23.833 C 128.248 23.833,128.127 24.015,128.071 24.238 C 128.016 24.460,127.864 24.683,127.735 24.733 C 127.606 24.782,127.500 24.938,127.500 25.078 C 127.500 25.218,127.388 25.333,127.250 25.333 C 127.083 25.333,127.000 25.500,127.000 25.833 C 127.000 26.180,126.918 26.333,126.734 26.333 C 126.588 26.333,126.430 26.483,126.382 26.667 C 126.334 26.850,126.191 27.000,126.064 27.000 C 125.937 27.000,125.833 27.142,125.833 27.316 C 125.833 27.489,125.721 27.674,125.583 27.727 C 125.446 27.780,125.333 28.013,125.333 28.245 C 125.333 28.477,125.250 28.667,125.148 28.667 C 124.783 28.667,124.172 29.420,124.170 29.875 C 124.168 30.170,124.078 30.333,123.917 30.333 C 123.779 30.333,123.667 30.446,123.667 30.583 C 123.667 30.721,123.567 30.833,123.444 30.833 C 123.322 30.833,123.041 31.205,122.819 31.660 C 122.598 32.115,122.323 32.490,122.208 32.494 C 122.094 32.497,122.000 32.615,122.000 32.755 C 122.000 32.896,121.892 33.052,121.760 33.102 C 121.628 33.153,121.472 33.413,121.414 33.681 C 121.355 33.948,121.200 34.167,121.070 34.167 C 120.940 34.167,120.833 34.279,120.833 34.417 C 120.833 34.554,120.756 34.667,120.663 34.667 C 120.569 34.667,120.420 34.854,120.333 35.083 C 120.246 35.313,120.099 35.500,120.007 35.500 C 119.915 35.500,119.794 35.682,119.738 35.905 C 119.682 36.127,119.531 36.350,119.402 36.399 C 119.208 36.474,119.167 37.214,119.167 40.578 L 119.167 44.667 136.083 44.667 L 153.000 44.667 153.000 36.917 L 153.000 29.167 149.167 29.167 L 145.333 29.167 145.333 33.083 L 145.333 37.000 139.500 37.000 C 135.722 37.000,133.667 36.941,133.667 36.833 C 133.667 36.742,133.740 36.667,133.830 36.667 C 133.920 36.667,134.039 36.485,134.095 36.262 C 134.151 36.040,134.302 35.817,134.432 35.767 C 134.561 35.718,134.667 35.562,134.667 35.422 C 134.667 35.282,134.773 35.167,134.903 35.167 C 135.034 35.167,135.188 34.948,135.247 34.681 C 135.306 34.413,135.462 34.153,135.594 34.102 C 135.725 34.052,135.833 33.904,135.833 33.773 C 135.833 33.642,135.946 33.492,136.083 33.440 C 136.221 33.387,136.333 33.154,136.333 32.922 C 136.333 32.647,136.426 32.500,136.599 32.500 C 136.745 32.500,136.902 32.355,136.949 32.178 C 136.995 32.001,137.138 31.816,137.266 31.767 C 137.395 31.717,137.500 31.522,137.500 31.333 C 137.500 31.144,137.612 30.946,137.750 30.894 C 137.887 30.841,138.000 30.656,138.000 30.482 C 138.000 30.309,138.094 30.166,138.208 30.166 C 138.470 30.164,139.167 29.158,139.167 28.781 C 139.167 28.627,139.279 28.500,139.417 28.500 C 139.554 28.500,139.667 28.387,139.667 28.250 C 139.667 28.113,139.741 28.000,139.831 28.000 C 139.922 28.000,140.105 27.737,140.239 27.417 C 140.373 27.096,140.562 26.833,140.658 26.833 C 140.755 26.833,140.833 26.729,140.833 26.601 C 140.833 26.473,140.946 26.326,141.083 26.273 C 141.221 26.220,141.333 25.992,141.333 25.766 C 141.333 25.502,141.452 25.318,141.667 25.250 C 141.850 25.192,142.000 25.045,142.000 24.923 C 142.000 24.802,142.112 24.659,142.250 24.606 C 142.387 24.554,142.500 24.329,142.500 24.106 C 142.500 23.884,142.612 23.659,142.750 23.606 C 142.887 23.554,143.000 23.396,143.000 23.255 C 143.000 23.115,143.100 23.000,143.222 23.000 C 143.345 23.000,143.626 22.628,143.847 22.173 C 144.069 21.718,144.344 21.343,144.458 21.340 C 144.573 21.336,144.667 21.218,144.667 21.078 C 144.667 20.938,144.775 20.781,144.906 20.731 C 145.038 20.680,145.194 20.420,145.253 20.153 C 145.312 19.885,145.466 19.667,145.597 19.667 C 145.727 19.667,145.833 19.562,145.833 19.434 C 145.833 19.307,145.946 19.159,146.083 19.106 C 146.229 19.050,146.333 18.801,146.333 18.505 C 146.333 18.214,146.421 17.999,146.542 17.997 C 146.852 17.993,147.399 17.342,147.762 16.546 C 147.939 16.159,148.165 15.840,148.264 15.838 C 148.364 15.835,148.626 15.461,148.847 15.006 C 149.069 14.552,149.344 14.177,149.458 14.173 C 149.573 14.170,149.667 14.017,149.667 13.833 C 149.667 13.650,149.773 13.500,149.903 13.500 C 150.034 13.500,150.190 13.275,150.250 13.000 C 150.310 12.725,150.466 12.500,150.597 12.500 C 150.727 12.500,150.833 12.350,150.833 12.167 C 150.833 11.981,150.944 11.833,151.083 11.833 C 151.250 11.833,151.333 11.667,151.333 11.333 C 151.333 10.987,151.415 10.833,151.599 10.833 C 151.745 10.833,151.904 10.683,151.952 10.500 C 152.000 10.317,152.144 10.167,152.273 10.167 C 152.468 10.167,152.499 9.575,152.462 6.625 L 152.417 3.083 136.375 3.041 L 120.333 2.998 120.333 10.499 M49.319 4.287 C 49.055 4.983,49.189 10.543,49.479 10.892 C 49.813 11.294,55.671 11.305,56.071 10.905 C 56.340 10.636,56.479 4.741,56.232 4.097 C 56.145 3.869,55.685 3.833,52.811 3.833 L 49.492 3.833 49.319 4.287 M55.833 7.375 L 55.833 10.500 52.750 10.500 L 49.667 10.500 49.667 7.375 L 49.667 4.250 52.750 4.250 L 55.833 4.250 55.833 7.375 M168.667 15.583 C 168.667 15.769,168.472 15.833,167.911 15.833 C 167.394 15.833,167.126 15.912,167.060 16.083 C 167.005 16.228,166.755 16.333,166.467 16.333 C 166.109 16.333,165.944 16.427,165.882 16.667 C 165.820 16.904,165.654 17.000,165.309 17.000 C 165.031 17.000,164.782 17.107,164.727 17.250 C 164.674 17.387,164.490 17.500,164.319 17.500 C 164.147 17.500,163.736 17.762,163.405 18.083 C 163.075 18.404,162.736 18.667,162.652 18.667 C 162.569 18.667,162.500 18.779,162.500 18.917 C 162.500 19.054,162.387 19.167,162.250 19.167 C 162.112 19.167,162.000 19.270,162.000 19.397 C 162.000 19.524,161.850 19.667,161.667 19.715 C 161.483 19.763,161.333 19.922,161.333 20.068 C 161.333 20.214,161.221 20.333,161.083 20.333 C 160.946 20.333,160.833 20.446,160.833 20.583 C 160.833 20.721,160.721 20.833,160.583 20.833 C 160.444 20.833,160.333 20.981,160.333 21.167 C 160.333 21.350,160.240 21.481,160.127 21.458 C 160.013 21.435,159.848 21.660,159.759 21.958 C 159.670 22.256,159.501 22.500,159.382 22.500 C 159.253 22.500,159.167 22.703,159.167 23.005 C 159.167 23.301,159.063 23.550,158.917 23.606 C 158.779 23.659,158.667 23.901,158.667 24.144 C 158.667 24.406,158.531 24.671,158.333 24.795 C 158.093 24.945,158.000 25.183,158.000 25.650 C 158.000 26.072,157.913 26.331,157.750 26.394 C 157.537 26.475,157.500 27.117,157.500 30.750 C 157.500 34.383,157.537 35.025,157.750 35.106 C 157.903 35.165,158.000 35.417,158.000 35.754 C 158.000 36.471,158.146 36.833,158.434 36.833 C 158.589 36.833,158.667 37.029,158.667 37.417 C 158.667 37.824,158.742 38.000,158.917 38.000 C 159.057 38.000,159.167 38.149,159.167 38.340 C 159.167 38.758,159.816 39.667,160.115 39.667 C 160.235 39.667,160.333 39.779,160.333 39.917 C 160.333 40.198,160.911 40.833,161.167 40.833 C 161.258 40.833,161.333 40.934,161.333 41.058 C 161.333 41.352,161.873 41.833,162.202 41.833 C 162.345 41.833,162.500 41.983,162.548 42.167 C 162.596 42.350,162.755 42.500,162.901 42.500 C 163.047 42.500,163.167 42.612,163.167 42.750 C 163.167 42.917,163.333 43.000,163.667 43.000 C 164.000 43.000,164.167 43.083,164.167 43.250 C 164.167 43.406,164.324 43.500,164.585 43.500 C 164.815 43.500,165.132 43.650,165.289 43.833 C 165.446 44.017,165.774 44.167,166.019 44.167 C 166.264 44.167,166.508 44.279,166.560 44.417 C 166.627 44.590,166.897 44.667,167.440 44.667 C 167.953 44.667,168.335 44.768,168.546 44.958 C 168.837 45.222,169.328 45.250,173.614 45.250 C 177.942 45.250,178.379 45.224,178.573 44.958 C 178.732 44.741,179.023 44.667,179.709 44.667 C 180.375 44.667,180.658 44.597,180.727 44.417 C 180.781 44.277,181.028 44.167,181.288 44.167 C 181.573 44.167,181.834 44.037,181.961 43.833 C 182.079 43.645,182.350 43.500,182.585 43.500 C 182.843 43.500,183.000 43.405,183.000 43.250 C 183.000 43.096,183.156 43.000,183.408 43.000 C 183.633 43.000,183.877 42.901,183.950 42.779 C 184.023 42.658,184.215 42.510,184.375 42.451 C 184.535 42.392,184.667 42.229,184.667 42.089 C 184.667 41.948,184.782 41.833,184.922 41.833 C 185.062 41.833,185.220 41.721,185.273 41.583 C 185.326 41.446,185.473 41.333,185.601 41.333 C 185.729 41.333,185.833 41.221,185.833 41.083 C 185.833 40.946,185.946 40.833,186.083 40.833 C 186.222 40.833,186.333 40.685,186.333 40.500 C 186.333 40.312,186.444 40.167,186.589 40.167 C 186.729 40.167,186.887 40.054,186.940 39.917 C 186.992 39.779,187.140 39.667,187.268 39.667 C 187.396 39.667,187.500 39.526,187.500 39.354 C 187.500 39.182,187.612 38.947,187.750 38.833 C 188.289 38.386,188.068 37.500,187.417 37.500 C 187.009 37.500,186.833 37.425,186.833 37.250 C 186.833 37.065,186.639 37.000,186.083 37.000 C 185.556 37.000,185.235 36.901,185.000 36.667 C 184.807 36.474,184.439 36.331,184.125 36.328 C 183.827 36.325,183.438 36.213,183.260 36.078 C 183.082 35.943,182.611 35.833,182.213 35.833 C 181.724 35.833,181.458 35.752,181.394 35.583 C 181.213 35.113,180.055 35.266,179.500 35.833 C 179.231 36.108,178.934 36.333,178.839 36.333 C 178.744 36.333,178.667 36.483,178.667 36.667 C 178.667 36.912,178.556 37.000,178.245 37.000 C 178.013 37.000,177.780 37.112,177.727 37.250 C 177.674 37.388,177.521 37.500,177.387 37.500 C 177.253 37.500,177.030 37.613,176.893 37.750 C 176.755 37.888,176.467 38.000,176.252 38.000 C 175.688 38.000,175.333 38.168,175.333 38.434 C 175.333 38.849,172.637 38.757,172.372 38.333 C 172.220 38.090,171.983 38.000,171.499 38.000 C 171.018 38.000,170.833 37.930,170.833 37.750 C 170.833 37.611,170.685 37.500,170.500 37.500 C 170.315 37.500,170.167 37.389,170.167 37.250 C 170.167 37.112,170.020 37.000,169.840 37.000 C 169.632 37.000,169.315 36.698,168.968 36.167 C 168.668 35.708,168.327 35.333,168.211 35.333 C 168.081 35.333,168.000 35.109,168.000 34.750 C 168.000 34.343,167.925 34.167,167.750 34.167 C 167.575 34.167,167.500 33.991,167.500 33.583 L 167.500 33.000 177.792 32.997 C 183.881 32.996,188.184 32.931,188.330 32.839 C 188.837 32.519,188.754 28.667,188.240 28.667 C 188.051 28.667,188.000 28.384,188.000 27.351 C 188.000 26.336,187.943 26.014,187.750 25.940 C 187.586 25.877,187.500 25.617,187.500 25.184 C 187.500 24.819,187.388 24.412,187.250 24.274 C 187.112 24.136,187.000 23.912,187.000 23.776 C 187.000 23.346,186.806 23.000,186.566 23.000 C 186.419 23.000,186.333 22.816,186.333 22.500 C 186.333 22.167,186.250 22.000,186.083 22.000 C 185.943 22.000,185.833 21.851,185.833 21.660 C 185.833 21.242,185.184 20.333,184.885 20.333 C 184.765 20.333,184.667 20.183,184.667 20.000 C 184.667 19.815,184.556 19.667,184.417 19.667 C 184.279 19.667,184.167 19.554,184.167 19.417 C 184.167 19.279,184.054 19.167,183.917 19.167 C 183.779 19.167,183.667 19.054,183.667 18.917 C 183.667 18.778,183.519 18.667,183.333 18.667 C 183.111 18.667,183.000 18.556,183.000 18.333 C 183.000 18.150,182.896 18.000,182.768 18.000 C 182.640 18.000,182.492 17.887,182.440 17.750 C 182.387 17.612,182.238 17.500,182.109 17.500 C 181.980 17.500,181.781 17.387,181.667 17.250 C 181.553 17.112,181.316 17.000,181.141 17.000 C 180.966 17.000,180.782 16.894,180.733 16.765 C 180.683 16.636,180.442 16.480,180.198 16.418 C 179.953 16.357,179.706 16.230,179.647 16.135 C 179.589 16.041,179.196 15.925,178.773 15.877 C 178.351 15.830,177.920 15.688,177.816 15.562 C 177.520 15.205,168.667 15.226,168.667 15.583 M210.333 15.583 C 210.333 15.768,210.141 15.833,209.601 15.833 C 209.104 15.833,208.838 15.914,208.773 16.083 C 208.720 16.221,208.565 16.333,208.428 16.333 C 208.291 16.333,208.098 16.483,208.000 16.667 C 207.896 16.862,207.651 17.000,207.411 17.000 C 207.157 17.000,207.000 17.095,207.000 17.250 C 207.000 17.387,206.929 17.500,206.842 17.500 C 206.612 17.500,205.833 18.255,205.833 18.477 C 205.833 18.582,205.721 18.667,205.583 18.667 C 205.446 18.667,205.333 18.782,205.333 18.922 C 205.333 19.062,205.225 19.219,205.094 19.269 C 204.962 19.320,204.806 19.580,204.747 19.847 C 204.450 21.198,204.167 20.336,204.167 18.083 L 204.167 15.833 197.250 15.833 L 190.333 15.833 190.333 19.390 L 190.333 22.946 190.758 23.140 C 191.007 23.254,192.038 23.333,193.258 23.333 L 195.333 23.333 195.333 30.417 L 195.333 37.500 192.833 37.500 L 190.333 37.500 190.333 41.083 L 190.333 44.667 200.333 44.667 L 210.333 44.667 210.333 41.083 L 210.333 37.500 207.833 37.500 L 205.333 37.500 205.333 34.434 C 205.333 31.863,205.374 31.354,205.583 31.273 C 205.755 31.207,205.833 30.939,205.833 30.422 C 205.833 29.862,205.898 29.667,206.083 29.667 C 206.258 29.667,206.333 29.491,206.333 29.083 C 206.333 28.676,206.409 28.500,206.583 28.500 C 206.721 28.500,206.833 28.387,206.833 28.250 C 206.833 28.113,206.983 27.850,207.167 27.667 C 207.350 27.483,207.500 27.258,207.500 27.167 C 207.500 27.075,207.601 27.000,207.724 27.000 C 207.847 27.000,208.084 26.850,208.250 26.667 C 208.416 26.483,208.655 26.333,208.781 26.333 C 208.907 26.333,209.054 26.221,209.106 26.083 C 209.160 25.944,209.407 25.833,209.664 25.833 C 209.918 25.833,210.211 25.731,210.314 25.607 C 210.468 25.421,211.331 25.242,212.618 25.129 C 212.728 25.119,212.857 25.011,212.904 24.889 C 212.964 24.733,213.339 24.667,214.161 24.667 L 215.333 24.667 215.333 20.000 L 215.333 15.333 212.833 15.333 C 210.722 15.333,210.333 15.372,210.333 15.583 M226.560 15.583 C 226.495 15.753,226.229 15.833,225.727 15.833 C 225.225 15.833,224.959 15.913,224.894 16.083 C 224.841 16.221,224.662 16.333,224.496 16.333 C 224.016 16.333,223.667 16.516,223.667 16.768 C 223.667 16.915,223.482 17.000,223.161 17.000 C 222.866 17.000,222.616 17.104,222.560 17.250 C 222.508 17.387,222.360 17.500,222.232 17.500 C 222.104 17.500,222.000 17.612,222.000 17.750 C 222.000 17.889,221.852 18.000,221.667 18.000 C 221.483 18.000,221.183 18.150,221.000 18.333 C 220.817 18.517,220.592 18.667,220.500 18.667 C 220.408 18.667,220.333 18.779,220.333 18.917 C 220.333 19.054,220.248 19.167,220.144 19.167 C 219.922 19.167,219.167 19.946,219.167 20.175 C 219.167 20.262,219.054 20.333,218.917 20.333 C 218.779 20.333,218.667 20.449,218.667 20.590 C 218.667 20.732,218.517 21.008,218.333 21.205 C 218.150 21.402,218.000 21.661,218.000 21.781 C 218.000 21.902,217.887 22.000,217.750 22.000 C 217.585 22.000,217.500 22.165,217.500 22.482 C 217.500 22.757,217.393 23.006,217.250 23.060 C 217.104 23.116,217.000 23.366,217.000 23.661 C 217.000 23.982,216.915 24.167,216.768 24.167 C 216.479 24.167,216.333 24.529,216.333 25.246 C 216.333 25.583,216.236 25.835,216.083 25.894 C 215.870 25.975,215.833 26.617,215.833 30.250 C 215.833 33.883,215.870 34.525,216.083 34.606 C 216.236 34.665,216.333 34.917,216.333 35.254 C 216.333 35.971,216.479 36.333,216.768 36.333 C 216.922 36.333,217.000 36.529,217.000 36.917 C 217.000 37.324,217.075 37.500,217.250 37.500 C 217.417 37.500,217.500 37.667,217.500 38.000 C 217.500 38.333,217.583 38.500,217.750 38.500 C 217.889 38.500,218.000 38.648,218.000 38.833 C 218.000 39.017,218.150 39.317,218.333 39.500 C 218.517 39.683,218.667 39.908,218.667 40.000 C 218.667 40.092,218.779 40.167,218.917 40.167 C 219.054 40.167,219.168 40.260,219.170 40.375 C 219.173 40.629,219.892 41.333,220.148 41.333 C 220.250 41.333,220.333 41.446,220.333 41.583 C 220.333 41.721,220.437 41.833,220.564 41.833 C 220.691 41.833,220.834 41.983,220.882 42.167 C 220.930 42.350,221.080 42.500,221.217 42.500 C 221.353 42.500,221.508 42.612,221.560 42.750 C 221.613 42.887,221.846 43.000,222.078 43.000 C 222.342 43.000,222.500 43.094,222.500 43.250 C 222.500 43.387,222.644 43.500,222.820 43.500 C 223.316 43.500,223.667 43.680,223.667 43.934 C 223.667 44.082,223.851 44.167,224.172 44.167 C 224.467 44.167,224.717 44.271,224.773 44.417 C 224.840 44.592,225.113 44.667,225.684 44.667 C 226.273 44.667,226.500 44.732,226.500 44.901 C 226.500 45.397,235.226 45.433,235.588 44.939 C 235.722 44.755,236.037 44.667,236.560 44.667 C 237.136 44.667,237.333 44.603,237.333 44.417 C 237.333 44.261,237.491 44.167,237.752 44.167 C 237.982 44.167,238.298 44.017,238.455 43.833 C 238.612 43.650,238.912 43.500,239.120 43.500 C 239.329 43.500,239.500 43.423,239.500 43.329 C 239.500 43.235,239.688 43.087,239.917 43.000 C 240.146 42.913,240.333 42.765,240.333 42.671 C 240.333 42.577,240.445 42.500,240.582 42.500 C 240.719 42.500,240.924 42.350,241.039 42.167 C 241.153 41.983,241.344 41.833,241.462 41.833 C 241.580 41.833,241.720 41.721,241.773 41.583 C 241.826 41.446,241.959 41.333,242.070 41.333 C 242.295 41.333,243.000 40.447,243.000 40.164 C 243.000 40.063,243.079 40.029,243.175 40.089 C 243.273 40.149,243.437 39.970,243.545 39.682 C 243.652 39.399,243.836 39.167,243.953 39.167 C 244.071 39.167,244.167 39.025,244.167 38.851 C 244.167 38.678,244.279 38.492,244.417 38.440 C 244.554 38.387,244.667 38.152,244.667 37.917 C 244.667 37.682,244.777 37.447,244.912 37.395 C 245.047 37.344,245.205 37.049,245.263 36.740 C 245.321 36.431,245.473 36.092,245.601 35.986 C 245.740 35.870,245.833 35.474,245.833 34.997 C 245.833 34.444,245.909 34.173,246.083 34.106 C 246.295 34.025,246.333 33.439,246.333 30.250 C 246.333 27.061,246.295 26.475,246.083 26.394 C 245.909 26.327,245.833 26.055,245.833 25.494 C 245.833 25.034,245.735 24.592,245.604 24.461 C 245.477 24.334,245.323 23.998,245.260 23.713 C 245.198 23.428,245.038 23.153,244.906 23.102 C 244.771 23.050,244.667 22.791,244.667 22.505 C 244.667 22.167,244.584 22.000,244.417 22.000 C 244.279 22.000,244.167 21.885,244.167 21.745 C 244.167 21.604,244.059 21.448,243.927 21.398 C 243.795 21.347,243.639 21.087,243.580 20.819 C 243.522 20.552,243.367 20.333,243.237 20.333 C 243.107 20.333,243.000 20.258,243.000 20.167 C 243.000 19.950,241.717 18.667,241.500 18.667 C 241.408 18.667,241.333 18.554,241.333 18.417 C 241.333 18.279,241.221 18.167,241.083 18.167 C 240.946 18.167,240.683 18.017,240.500 17.833 C 240.317 17.650,240.054 17.500,239.917 17.500 C 239.779 17.500,239.667 17.387,239.667 17.250 C 239.667 17.084,239.501 17.000,239.173 17.000 C 238.849 17.000,238.617 16.885,238.500 16.667 C 238.399 16.478,238.151 16.333,237.929 16.333 C 237.712 16.333,237.492 16.221,237.440 16.083 C 237.374 15.912,237.106 15.833,236.583 15.833 C 236.061 15.833,235.793 15.755,235.727 15.583 C 235.645 15.370,234.979 15.333,231.144 15.333 C 227.309 15.333,226.642 15.370,226.560 15.583 M173.407 22.255 C 173.585 22.390,173.916 22.500,174.144 22.500 C 174.695 22.500,175.824 23.030,175.829 23.292 C 175.831 23.406,175.953 23.500,176.099 23.500 C 176.245 23.500,176.404 23.650,176.452 23.833 C 176.500 24.017,176.643 24.167,176.769 24.167 C 176.896 24.167,177.000 24.279,177.000 24.417 C 177.000 24.554,177.112 24.667,177.250 24.667 C 177.402 24.667,177.500 24.822,177.500 25.063 C 177.500 25.281,177.612 25.553,177.750 25.667 C 177.887 25.781,178.000 26.127,178.000 26.437 L 178.000 27.000 172.750 27.000 C 167.157 27.000,166.815 26.943,167.750 26.167 C 167.894 26.048,168.000 25.684,168.000 25.313 C 168.000 24.877,168.074 24.667,168.229 24.667 C 168.354 24.667,168.635 24.405,168.854 24.084 C 169.072 23.764,169.344 23.502,169.458 23.501 C 169.573 23.501,169.667 23.387,169.667 23.250 C 169.667 23.113,169.782 23.000,169.922 23.000 C 170.062 23.000,170.220 22.887,170.273 22.750 C 170.338 22.580,170.605 22.500,171.106 22.500 C 171.608 22.500,171.874 22.420,171.940 22.250 C 172.063 21.927,172.978 21.931,173.407 22.255 M232.000 23.167 C 232.000 23.259,232.347 23.427,232.771 23.541 C 233.194 23.654,233.577 23.841,233.622 23.957 C 233.666 24.072,233.807 24.167,233.934 24.167 C 234.062 24.167,234.167 24.279,234.167 24.417 C 234.167 24.554,234.279 24.667,234.417 24.667 C 234.554 24.667,234.667 24.779,234.667 24.917 C 234.667 25.054,234.817 25.317,235.000 25.500 C 235.183 25.683,235.333 26.017,235.333 26.242 C 235.333 26.466,235.438 26.710,235.567 26.783 C 235.990 27.025,236.006 33.667,235.583 33.667 C 235.416 33.667,235.333 33.834,235.333 34.172 C 235.333 34.458,235.229 34.717,235.094 34.769 C 234.962 34.820,234.806 35.080,234.747 35.347 C 234.688 35.615,234.534 35.833,234.403 35.833 C 234.273 35.833,234.167 35.936,234.167 36.063 C 234.167 36.189,233.942 36.337,233.667 36.392 C 233.373 36.450,233.167 36.597,233.167 36.746 C 233.167 36.925,232.995 37.000,232.583 37.000 C 232.176 37.000,232.000 37.075,232.000 37.250 C 232.000 37.442,231.787 37.500,231.083 37.500 C 230.380 37.500,230.167 37.442,230.167 37.250 C 230.167 37.075,229.991 37.000,229.583 37.000 C 229.176 37.000,229.000 36.925,229.000 36.750 C 229.000 36.613,228.944 36.508,228.875 36.518 C 228.561 36.563,228.000 36.272,228.000 36.064 C 228.000 35.937,227.887 35.833,227.750 35.833 C 227.612 35.833,227.500 35.688,227.500 35.510 C 227.500 35.332,227.427 35.141,227.338 35.086 C 227.249 35.031,227.053 34.727,226.902 34.410 C 226.752 34.093,226.562 33.833,226.481 33.833 C 226.400 33.833,226.333 33.421,226.333 32.917 C 226.333 32.213,226.275 32.000,226.083 32.000 C 225.877 32.000,225.833 31.694,225.833 30.250 C 225.833 28.806,225.877 28.500,226.083 28.500 C 226.280 28.500,226.333 28.269,226.333 27.417 C 226.333 26.580,226.388 26.333,226.576 26.333 C 226.721 26.333,226.862 26.099,226.928 25.750 C 226.990 25.416,227.136 25.167,227.269 25.167 C 227.396 25.167,227.500 25.054,227.500 24.917 C 227.500 24.779,227.612 24.667,227.750 24.667 C 227.887 24.667,228.000 24.592,228.000 24.500 C 228.000 24.196,228.669 23.658,229.172 23.557 C 229.444 23.503,229.667 23.355,229.667 23.229 C 229.667 23.057,229.955 23.000,230.833 23.000 C 231.503 23.000,232.000 23.071,232.000 23.167 M21.042 28.748 L 20.500 28.984 20.470 31.617 C 20.434 34.827,20.469 35.377,20.720 35.537 C 21.038 35.739,84.466 35.696,84.844 35.494 C 85.143 35.334,85.167 35.121,85.164 32.536 C 85.162 29.310,85.119 29.070,84.487 28.743 C 83.790 28.383,21.871 28.388,21.042 28.748 M84.629 29.140 C 84.791 29.243,84.830 29.984,84.796 32.262 L 84.750 35.250 52.811 35.292 L 20.872 35.334 20.772 34.959 C 20.600 34.318,20.656 29.665,20.839 29.322 C 21.023 28.980,84.092 28.799,84.629 29.140 M66.948 30.336 C 64.982 30.926,65.526 33.976,67.599 33.994 C 68.600 34.003,69.500 33.112,69.500 32.112 C 69.500 31.314,68.778 30.333,68.190 30.333 C 68.009 30.333,67.761 30.302,67.639 30.264 C 67.517 30.227,67.206 30.259,66.948 30.336 M71.896 30.348 C 70.747 30.681,70.436 32.779,71.417 33.580 C 73.045 34.910,75.270 32.869,74.156 31.066 C 73.863 30.592,72.952 30.106,72.500 30.183 C 72.454 30.190,72.182 30.265,71.896 30.348 M76.948 30.336 C 74.982 30.926,75.526 33.976,77.599 33.994 C 78.600 34.003,79.500 33.112,79.500 32.112 C 79.500 31.314,78.778 30.333,78.190 30.333 C 78.009 30.333,77.761 30.302,77.639 30.264 C 77.517 30.227,77.206 30.259,76.948 30.336 M27.250 30.593 C 25.928 31.283,25.646 32.435,26.561 33.405 L 27.123 34.000 44.353 33.997 L 61.583 33.994 61.994 33.562 C 62.609 32.913,62.586 31.510,61.949 30.873 L 61.493 30.417 44.621 30.374 C 29.575 30.337,27.696 30.360,27.250 30.593 M68.584 30.902 C 70.075 32.393,68.064 34.588,66.523 33.152 C 65.970 32.637,66.018 31.308,66.606 30.845 C 67.212 30.369,68.075 30.394,68.584 30.902 M73.358 30.680 C 74.260 31.163,74.236 32.950,73.320 33.424 C 72.648 33.771,72.263 33.727,71.679 33.235 C 70.276 32.054,71.746 29.817,73.358 30.680 M78.584 30.902 C 80.075 32.393,78.064 34.588,76.523 33.152 C 76.191 32.843,76.087 32.397,76.157 31.583 C 76.240 30.600,77.834 30.152,78.584 30.902 M61.338 30.941 C 62.327 31.600,62.490 32.655,61.708 33.345 L 61.250 33.750 44.538 33.794 C 25.995 33.843,27.102 33.907,26.547 32.745 C 26.215 32.048,26.446 31.464,27.250 30.973 C 27.984 30.525,60.666 30.494,61.338 30.941 M20.625 38.847 C 20.351 39.006,20.333 39.910,20.333 54.088 C 20.333 69.988,20.310 70.500,19.588 70.500 C 19.327 70.500,18.452 71.174,18.566 71.288 C 18.612 71.334,18.974 71.214,19.370 71.023 C 20.763 70.348,20.666 71.521,20.668 55.308 C 20.669 47.393,20.717 40.523,20.775 40.042 L 20.880 39.167 52.770 39.167 L 84.660 39.167 84.743 39.542 C 84.789 39.748,84.847 41.274,84.871 42.933 C 84.907 45.318,84.969 46.013,85.167 46.253 C 85.481 46.635,86.828 47.500,87.108 47.500 C 87.416 47.500,86.654 46.735,86.207 46.595 C 85.410 46.345,85.255 45.677,85.195 42.251 C 85.162 40.386,85.068 38.999,84.966 38.876 C 84.740 38.604,21.091 38.575,20.625 38.847 M87.042 49.847 C 86.835 49.925,86.667 50.067,86.667 50.161 C 86.667 50.256,86.482 50.333,86.256 50.333 C 85.810 50.333,85.223 50.858,84.984 51.469 C 84.898 51.689,84.833 58.612,84.833 67.594 L 84.833 83.333 75.942 83.333 C 65.807 83.333,65.861 83.326,65.417 84.833 C 65.349 85.063,65.179 85.381,65.038 85.542 C 64.807 85.804,64.808 85.833,65.045 85.833 C 65.282 85.833,65.438 85.612,66.061 84.388 C 66.338 83.844,66.531 83.833,76.000 83.833 C 83.262 83.833,84.826 83.793,84.983 83.604 C 85.123 83.436,85.173 79.236,85.173 67.812 C 85.172 50.326,85.114 51.160,86.364 50.599 C 87.362 50.151,87.944 49.506,87.042 49.847 M36.508 51.684 C 36.283 51.774,34.314 53.632,32.133 55.812 L 28.167 59.777 28.169 60.513 C 28.173 61.486,27.944 61.208,32.355 65.625 L 36.224 69.500 37.106 69.500 C 37.849 69.500,38.052 69.430,38.404 69.050 C 39.489 67.879,39.205 67.357,35.388 63.512 C 33.891 62.004,32.667 60.692,32.667 60.597 C 32.667 60.501,33.940 59.159,35.495 57.613 C 39.115 54.019,39.360 53.633,38.684 52.607 C 38.073 51.680,37.319 51.361,36.508 51.684 M67.327 52.173 C 66.054 53.472,66.160 53.682,70.140 57.709 L 73.063 60.668 69.865 63.893 C 66.839 66.945,66.667 67.153,66.667 67.752 C 66.667 68.855,67.316 69.500,68.427 69.500 L 69.336 69.500 73.335 65.499 C 75.987 62.844,77.342 61.371,77.358 61.124 C 77.442 59.879,77.450 59.890,73.448 55.875 C 68.708 51.120,68.489 50.987,67.327 52.173 M37.568 52.110 C 39.224 52.899,38.882 53.669,35.236 57.347 C 33.548 59.051,32.167 60.538,32.167 60.652 C 32.167 60.766,33.479 62.169,35.083 63.771 C 38.733 67.415,39.077 68.058,37.881 68.998 C 36.984 69.704,36.597 69.431,32.137 64.947 C 27.454 60.241,27.506 61.069,31.625 56.895 C 34.366 54.116,36.760 51.833,36.932 51.833 C 36.963 51.833,37.250 51.958,37.568 52.110 M68.964 52.115 C 69.902 52.698,76.835 59.740,76.974 60.250 C 77.205 61.103,77.046 61.306,73.061 65.274 C 68.956 69.361,68.595 69.622,67.778 69.086 C 66.417 68.194,66.802 67.424,70.406 63.835 C 72.016 62.232,73.333 60.806,73.333 60.667 C 73.333 60.527,72.053 59.139,70.488 57.581 C 66.608 53.720,66.131 52.367,68.464 51.844 C 68.490 51.838,68.715 51.960,68.964 52.115 M49.312 53.125 C 48.652 53.849,48.117 54.805,45.599 59.750 C 45.132 60.667,44.704 61.454,44.647 61.500 C 44.591 61.546,44.132 62.371,43.627 63.333 C 43.123 64.296,42.438 65.586,42.105 66.201 C 41.370 67.560,41.326 68.267,41.931 68.987 C 42.802 70.022,44.765 69.540,45.107 68.208 C 45.160 68.002,45.254 67.833,45.317 67.833 C 45.430 67.833,46.333 66.150,46.333 65.938 C 46.333 65.877,46.525 65.522,46.760 65.150 C 46.995 64.778,47.619 63.636,48.147 62.612 C 48.674 61.588,49.304 60.437,49.546 60.056 C 49.789 59.674,50.035 59.170,50.093 58.937 C 50.152 58.704,50.305 58.426,50.433 58.320 C 50.562 58.213,50.667 58.026,50.667 57.905 C 50.667 57.783,50.883 57.361,51.147 56.967 C 51.951 55.766,52.377 54.674,52.263 54.106 C 51.987 52.727,50.212 52.137,49.312 53.125 M51.333 53.328 C 52.105 53.920,51.841 55.204,50.495 57.411 C 50.056 58.130,48.980 60.176,47.731 62.667 C 47.294 63.538,46.888 64.287,46.828 64.333 C 46.711 64.422,46.676 64.486,45.444 66.910 C 44.208 69.340,43.441 69.808,42.400 68.767 C 41.712 68.079,41.705 67.921,42.306 66.706 C 43.047 65.208,44.156 63.131,44.322 62.930 C 44.405 62.830,44.525 62.542,44.588 62.291 C 44.651 62.039,44.765 61.833,44.840 61.833 C 44.916 61.833,45.030 61.665,45.095 61.458 C 45.159 61.252,45.264 61.046,45.329 61.000 C 45.393 60.954,45.800 60.204,46.234 59.333 C 46.667 58.462,47.162 57.525,47.334 57.250 C 47.507 56.975,47.842 56.337,48.080 55.833 C 48.318 55.329,48.585 54.804,48.673 54.667 C 48.762 54.529,48.903 54.258,48.988 54.064 C 49.404 53.108,50.571 52.742,51.333 53.328 M51.565 65.988 C 50.394 66.489,50.159 67.931,51.091 68.891 C 52.343 70.180,54.055 69.338,54.029 67.447 C 54.013 66.292,52.688 65.507,51.565 65.988 M56.917 65.941 C 56.343 66.076,55.917 66.835,55.917 67.722 C 55.917 69.610,58.247 70.153,59.227 68.493 C 60.067 67.072,58.670 65.529,56.917 65.941 M62.072 65.985 C 60.508 66.659,61.171 69.500,62.892 69.500 C 65.040 69.500,65.271 66.085,63.136 65.899 C 62.741 65.865,62.261 65.903,62.072 65.985 M53.303 66.585 C 53.838 67.200,53.801 68.203,53.228 68.655 C 52.073 69.563,50.458 68.476,51.003 67.159 C 51.433 66.121,52.638 65.820,53.303 66.585 M58.367 66.375 C 59.901 67.586,58.569 69.648,56.833 68.750 C 55.701 68.164,56.203 66.167,57.482 66.167 C 57.823 66.167,58.222 66.260,58.367 66.375 M63.969 66.660 C 64.842 67.841,64.003 69.194,62.565 68.924 C 61.900 68.800,61.667 68.432,61.667 67.511 C 61.667 66.172,63.191 65.608,63.969 66.660 M18.000 73.831 C 18.000 73.905,18.356 74.150,18.792 74.376 C 20.278 75.148,20.333 75.332,20.333 79.536 C 20.333 81.735,20.402 83.317,20.506 83.511 C 20.675 83.827,21.077 83.833,40.714 83.836 C 63.199 83.838,61.251 83.742,61.917 84.877 C 62.192 85.346,62.529 85.758,62.667 85.794 C 62.829 85.836,62.852 85.810,62.732 85.721 C 62.631 85.645,62.460 85.321,62.352 85.000 C 61.747 83.199,63.545 83.341,40.666 83.292 L 20.750 83.250 20.667 79.250 C 20.573 74.755,20.498 74.495,19.233 74.258 C 18.922 74.199,18.667 74.089,18.667 74.012 C 18.667 73.935,18.517 73.833,18.333 73.785 C 18.150 73.737,18.000 73.758,18.000 73.831 M49.479 101.275 C 49.189 101.624,49.055 107.184,49.319 107.879 L 49.492 108.333 52.811 108.333 C 55.685 108.333,56.145 108.298,56.232 108.070 C 56.479 107.426,56.340 101.531,56.071 101.262 C 55.671 100.861,49.813 100.873,49.479 101.275 M55.833 104.792 L 55.833 107.917 52.750 107.917 L 49.667 107.917 49.667 104.792 L 49.667 101.667 52.750 101.667 L 55.833 101.667 55.833 104.792 " stroke="none" fill="#74847c" fill-rule="evenodd"></path><path id="path4" d="M11.163 9.928 C 10.965 10.448,10.949 16.162,11.145 16.470 C 11.285 16.691,17.677 16.783,18.023 16.569 C 18.102 16.520,18.167 15.027,18.167 13.250 C 18.167 9.166,18.504 9.500,14.375 9.500 L 11.325 9.500 11.163 9.928 M87.667 9.833 C 87.224 10.276,87.144 16.392,87.579 16.558 C 87.932 16.694,94.105 16.724,94.320 16.592 C 94.559 16.444,94.566 10.268,94.327 9.822 C 94.058 9.319,88.172 9.328,87.667 9.833 M11.667 95.475 C 11.438 95.507,11.195 95.620,11.128 95.725 C 10.944 96.012,10.975 101.746,11.163 102.239 L 11.325 102.667 14.394 102.667 C 18.517 102.667,18.190 103.002,18.130 98.833 L 18.083 95.583 15.083 95.500 C 13.433 95.454,11.896 95.443,11.667 95.475 M90.417 95.507 C 88.767 95.560,87.398 95.617,87.375 95.635 C 87.106 95.840,87.376 102.043,87.667 102.333 C 88.172 102.838,94.058 102.848,94.327 102.344 C 94.525 101.974,94.570 95.725,94.375 95.616 C 94.062 95.441,93.210 95.417,90.417 95.507 " stroke="none" fill="#f5423d" fill-rule="evenodd"></path></g></svg>