<svg id="svg" version="1.1" xmlns="http://www.w3.org/2000/svg" xmlns:xlink="http://www.w3.org/1999/xlink" width="400" height="400" viewBox="0, 0, 400,400"><g id="svgg"><path id="path0" d="M182.500 0.274 C 182.005 0.374,181.600 0.623,181.600 0.828 C 181.600 1.033,181.312 1.200,180.960 1.200 C 180.204 1.200,176.800 4.688,176.800 5.464 C 176.800 5.759,176.645 6.000,176.455 6.000 C 174.830 6.000,173.918 39.680,175.500 41.260 C 175.775 41.535,176.000 42.084,176.000 42.480 C 176.000 42.876,176.180 43.200,176.400 43.200 C 176.620 43.200,176.800 43.456,176.800 43.768 C 176.800 44.508,180.292 48.000,181.032 48.000 C 181.344 48.000,181.600 48.180,181.600 48.400 C 181.600 48.620,182.140 48.800,182.800 48.800 C 183.460 48.800,184.000 48.980,184.000 49.200 C 184.000 49.443,185.800 49.600,188.600 49.600 L 193.200 49.600 193.200 69.200 L 193.200 88.800 161.600 88.800 L 130.000 88.800 130.000 69.824 C 130.000 57.604,129.858 50.759,129.600 50.600 C 129.380 50.464,129.200 49.643,129.200 48.776 C 129.200 47.909,129.020 47.200,128.800 47.200 C 128.580 47.200,128.400 46.840,128.400 46.400 C 128.400 45.960,128.220 45.600,128.000 45.600 C 127.780 45.600,127.600 45.309,127.600 44.954 C 127.600 44.220,124.463 41.200,123.700 41.200 C 123.425 41.200,123.200 41.020,123.200 40.800 C 123.200 40.580,122.840 40.400,122.400 40.400 C 121.960 40.400,121.600 40.220,121.600 40.000 C 121.600 39.780,120.880 39.600,120.000 39.600 C 119.120 39.600,118.400 39.420,118.400 39.200 C 118.400 38.940,113.067 38.800,103.200 38.800 L 88.000 38.800 88.000 34.624 C 88.000 32.271,87.825 30.339,87.600 30.200 C 87.380 30.064,87.200 29.601,87.200 29.171 C 87.200 27.627,82.729 22.400,81.409 22.400 C 81.074 22.400,80.800 22.220,80.800 22.000 C 80.800 21.780,80.440 21.600,80.000 21.600 C 79.560 21.600,79.200 21.420,79.200 21.200 C 79.200 20.980,78.480 20.800,77.600 20.800 C 76.720 20.800,76.000 20.620,76.000 20.400 C 76.000 19.852,49.339 19.852,49.000 20.400 C 48.864 20.620,48.043 20.800,47.176 20.800 C 46.309 20.800,45.600 20.980,45.600 21.200 C 45.600 21.420,45.240 21.600,44.800 21.600 C 44.360 21.600,44.000 21.780,44.000 22.000 C 44.000 22.220,43.782 22.400,43.515 22.400 C 42.881 22.400,38.800 26.790,38.800 27.473 C 38.800 27.763,38.620 28.000,38.400 28.000 C 38.180 28.000,38.000 28.529,38.000 29.176 C 38.000 29.823,37.820 30.464,37.600 30.600 C 37.051 30.939,37.051 60.400,37.600 60.400 C 37.820 60.400,38.000 60.940,38.000 61.600 C 38.000 62.260,38.180 62.800,38.400 62.800 C 38.620 62.800,38.800 63.160,38.800 63.600 C 38.800 64.040,38.980 64.400,39.200 64.400 C 39.420 64.400,39.600 64.635,39.600 64.922 C 39.600 65.581,42.156 68.400,42.754 68.400 C 42.999 68.400,43.200 68.536,43.200 68.702 C 43.200 68.869,43.785 69.240,44.500 69.529 C 45.215 69.817,46.113 70.221,46.495 70.426 C 47.464 70.948,78.400 70.923,78.400 70.400 C 78.400 70.180,78.816 70.000,79.325 70.000 C 79.833 70.000,80.636 69.640,81.108 69.200 C 81.580 68.760,82.175 68.400,82.429 68.400 C 83.039 68.400,85.600 65.591,85.600 64.922 C 85.600 64.635,85.780 64.400,86.000 64.400 C 86.220 64.400,86.400 64.040,86.400 63.600 C 86.400 63.160,86.580 62.800,86.800 62.800 C 87.020 62.800,87.200 62.260,87.200 61.600 C 87.200 60.940,87.380 60.400,87.600 60.400 C 87.841 60.400,88.000 58.733,88.000 56.200 L 88.000 52.000 101.829 52.000 C 113.280 52.000,115.755 52.098,116.229 52.571 C 116.707 53.050,116.800 56.053,116.800 70.971 L 116.800 88.800 100.024 88.800 C 89.271 88.800,83.158 88.944,83.000 89.200 C 82.864 89.420,82.313 89.600,81.776 89.600 C 81.239 89.600,80.800 89.780,80.800 90.000 C 80.800 90.220,80.440 90.400,80.000 90.400 C 79.560 90.400,79.200 90.580,79.200 90.800 C 79.200 91.020,78.907 91.200,78.548 91.200 C 77.673 91.200,74.023 94.819,74.010 95.700 C 74.005 96.085,73.820 96.400,73.600 96.400 C 73.380 96.400,73.200 96.760,73.200 97.200 C 73.200 97.640,73.020 98.000,72.800 98.000 C 72.580 98.000,72.400 98.439,72.400 98.976 C 72.400 99.513,72.220 100.064,72.000 100.200 C 71.736 100.363,71.600 125.942,71.600 175.637 L 71.600 250.827 72.987 252.213 C 73.749 252.976,74.634 253.600,74.953 253.600 C 75.272 253.600,75.604 253.813,75.691 254.072 C 75.801 254.402,76.445 254.273,77.824 253.643 C 81.290 252.062,81.782 251.691,82.700 249.965 L 83.600 248.274 83.600 192.937 L 83.600 137.600 200.000 137.600 L 316.400 137.600 316.400 149.737 C 316.400 164.777,316.363 164.656,321.714 166.951 C 323.998 167.930,324.728 167.763,326.644 165.819 L 328.400 164.038 328.400 132.242 C 328.400 111.477,328.261 100.361,328.000 100.200 C 327.780 100.064,327.600 99.513,327.600 98.976 C 327.600 98.439,327.420 98.000,327.200 98.000 C 326.980 98.000,326.800 97.640,326.800 97.200 C 326.800 96.760,326.620 96.400,326.400 96.400 C 326.180 96.400,325.995 96.085,325.990 95.700 C 325.977 94.819,322.327 91.200,321.452 91.200 C 321.093 91.200,320.800 91.020,320.800 90.800 C 320.800 90.580,320.440 90.400,320.000 90.400 C 319.560 90.400,319.200 90.220,319.200 90.000 C 319.200 89.780,318.761 89.600,318.224 89.600 C 317.687 89.600,317.136 89.420,317.000 89.200 C 316.842 88.944,310.729 88.800,299.976 88.800 L 283.200 88.800 283.200 70.971 C 283.200 56.053,283.293 53.050,283.771 52.571 C 284.245 52.098,286.720 52.000,298.171 52.000 L 312.000 52.000 312.000 56.200 C 312.000 58.733,312.159 60.400,312.400 60.400 C 312.620 60.400,312.800 60.940,312.800 61.600 C 312.800 62.260,312.980 62.800,313.200 62.800 C 313.420 62.800,313.600 63.160,313.600 63.600 C 313.600 64.040,313.780 64.400,314.000 64.400 C 314.220 64.400,314.400 64.635,314.400 64.922 C 314.400 65.591,316.961 68.400,317.571 68.400 C 317.825 68.400,318.420 68.760,318.892 69.200 C 319.364 69.640,320.167 70.000,320.675 70.000 C 321.184 70.000,321.600 70.180,321.600 70.400 C 321.600 70.923,352.536 70.948,353.505 70.426 C 353.887 70.221,354.785 69.817,355.500 69.529 C 356.215 69.240,356.800 68.869,356.800 68.702 C 356.800 68.536,357.001 68.400,357.246 68.400 C 357.844 68.400,360.400 65.581,360.400 64.922 C 360.400 64.635,360.580 64.400,360.800 64.400 C 361.020 64.400,361.200 64.040,361.200 63.600 C 361.200 63.160,361.380 62.800,361.600 62.800 C 361.820 62.800,362.000 62.260,362.000 61.600 C 362.000 60.940,362.180 60.400,362.400 60.400 C 362.659 60.400,362.800 55.208,362.800 45.624 C 362.800 36.204,362.655 30.758,362.400 30.600 C 362.180 30.464,362.000 29.823,362.000 29.176 C 362.000 28.529,361.820 28.000,361.600 28.000 C 361.380 28.000,361.200 27.763,361.200 27.473 C 361.200 26.790,357.119 22.400,356.485 22.400 C 356.218 22.400,356.000 22.220,356.000 22.000 C 356.000 21.780,355.640 21.600,355.200 21.600 C 354.760 21.600,354.400 21.420,354.400 21.200 C 354.400 20.980,353.691 20.800,352.824 20.800 C 351.957 20.800,351.136 20.620,351.000 20.400 C 350.661 19.852,324.000 19.852,324.000 20.400 C 324.000 20.620,323.280 20.800,322.400 20.800 C 321.520 20.800,320.800 20.980,320.800 21.200 C 320.800 21.420,320.440 21.600,320.000 21.600 C 319.560 21.600,319.200 21.780,319.200 22.000 C 319.200 22.220,318.926 22.400,318.591 22.400 C 317.271 22.400,312.800 27.627,312.800 29.171 C 312.800 29.601,312.620 30.064,312.400 30.200 C 312.175 30.339,312.000 32.271,312.000 34.624 L 312.000 38.800 296.800 38.800 C 286.933 38.800,281.600 38.940,281.600 39.200 C 281.600 39.420,280.880 39.600,280.000 39.600 C 279.120 39.600,278.400 39.780,278.400 40.000 C 278.400 40.220,278.040 40.400,277.600 40.400 C 277.160 40.400,276.800 40.580,276.800 40.800 C 276.800 41.020,276.575 41.200,276.300 41.200 C 275.537 41.200,272.400 44.220,272.400 44.954 C 272.400 45.309,272.220 45.600,272.000 45.600 C 271.780 45.600,271.600 45.960,271.600 46.400 C 271.600 46.840,271.420 47.200,271.200 47.200 C 270.980 47.200,270.800 47.909,270.800 48.776 C 270.800 49.643,270.620 50.464,270.400 50.600 C 270.142 50.759,270.000 57.604,270.000 69.824 L 270.000 88.800 238.400 88.800 L 206.800 88.800 206.800 69.200 L 206.800 49.600 211.400 49.600 C 214.200 49.600,216.000 49.443,216.000 49.200 C 216.000 48.980,216.540 48.800,217.200 48.800 C 217.860 48.800,218.400 48.620,218.400 48.400 C 218.400 48.180,218.656 48.000,218.968 48.000 C 219.708 48.000,223.200 44.508,223.200 43.768 C 223.200 43.456,223.380 43.200,223.600 43.200 C 223.820 43.200,224.000 42.876,224.000 42.480 C 224.000 42.084,224.225 41.535,224.500 41.260 C 226.082 39.680,225.170 6.000,223.545 6.000 C 223.355 6.000,223.200 5.759,223.200 5.464 C 223.200 4.707,219.805 1.200,219.073 1.200 C 218.740 1.200,218.392 0.975,218.300 0.700 C 218.136 0.208,184.797 -0.188,182.500 0.274 M212.557 12.233 C 213.048 13.512,212.828 36.612,212.320 37.120 C 211.634 37.806,188.366 37.806,187.680 37.120 C 187.172 36.612,186.952 13.512,187.443 12.233 C 187.812 11.272,212.188 11.272,212.557 12.233 M75.210 33.826 C 75.784 35.335,75.718 56.103,75.136 57.381 L 74.672 58.400 62.550 58.400 C 50.975 58.400,50.409 58.365,50.014 57.626 C 49.570 56.796,49.424 35.297,49.852 33.700 L 50.093 32.800 62.457 32.800 L 74.820 32.800 75.210 33.826 M350.148 33.700 C 350.576 35.297,350.430 56.796,349.986 57.626 C 349.591 58.365,349.025 58.400,337.450 58.400 L 325.328 58.400 324.864 57.381 C 324.282 56.103,324.216 35.335,324.790 33.826 L 325.180 32.800 337.543 32.800 L 349.907 32.800 350.148 33.700 M315.040 102.160 L 316.400 103.520 316.400 114.760 L 316.400 126.000 200.000 126.000 L 83.600 126.000 83.600 114.760 L 83.600 103.520 84.960 102.160 L 86.320 100.800 200.000 100.800 L 313.680 100.800 315.040 102.160 M250.359 108.514 C 247.740 110.276,246.988 113.283,248.424 116.250 C 250.504 120.547,256.324 120.489,258.424 116.150 C 261.015 110.798,255.179 105.272,250.359 108.514 M268.359 108.514 C 265.740 110.276,264.988 113.283,266.424 116.250 C 268.504 120.547,274.324 120.489,276.424 116.150 C 279.015 110.798,273.179 105.272,268.359 108.514 M287.000 107.982 C 284.010 109.219,282.762 113.399,284.474 116.446 C 287.390 121.634,294.899 119.608,294.965 113.615 C 295.013 109.262,290.914 106.363,287.000 107.982 M109.097 108.744 C 102.982 110.162,104.092 119.032,110.478 119.788 C 116.817 120.540,230.185 119.809,231.508 119.009 C 234.956 116.924,235.050 111.620,231.680 109.333 C 230.582 108.588,112.224 108.019,109.097 108.744 M321.800 179.309 C 320.920 179.761,319.750 180.358,319.200 180.637 C 318.650 180.915,317.795 181.904,317.300 182.835 L 316.400 184.526 316.400 241.863 L 316.400 299.200 284.146 299.200 C 250.243 299.200,249.664 299.229,248.002 300.998 C 245.102 304.084,245.216 310.400,248.171 310.400 C 248.517 310.400,248.800 310.580,248.800 310.800 C 248.800 311.057,252.600 311.200,259.400 311.200 L 270.000 311.200 270.000 330.176 C 270.000 342.396,270.142 349.241,270.400 349.400 C 270.620 349.536,270.800 350.357,270.800 351.224 C 270.800 352.091,270.980 352.800,271.200 352.800 C 271.420 352.800,271.600 353.160,271.600 353.600 C 271.600 354.040,271.780 354.400,272.000 354.400 C 272.220 354.400,272.400 354.691,272.400 355.046 C 272.400 355.780,275.537 358.800,276.300 358.800 C 276.575 358.800,276.800 358.980,276.800 359.200 C 276.800 359.420,277.160 359.600,277.600 359.600 C 278.040 359.600,278.400 359.780,278.400 360.000 C 278.400 360.220,279.120 360.400,280.000 360.400 C 280.880 360.400,281.600 360.580,281.600 360.800 C 281.600 361.060,286.933 361.200,296.800 361.200 L 312.000 361.200 312.000 365.376 C 312.000 367.729,312.175 369.661,312.400 369.800 C 312.620 369.936,312.800 370.399,312.800 370.829 C 312.800 372.373,317.271 377.600,318.591 377.600 C 318.926 377.600,319.200 377.780,319.200 378.000 C 319.200 378.220,319.560 378.400,320.000 378.400 C 320.440 378.400,320.800 378.580,320.800 378.800 C 320.800 379.020,321.520 379.200,322.400 379.200 C 323.280 379.200,324.000 379.380,324.000 379.600 C 324.000 379.859,328.725 380.000,337.376 380.000 C 345.863 380.000,350.843 379.854,351.000 379.600 C 351.136 379.380,351.957 379.200,352.824 379.200 C 353.691 379.200,354.400 379.020,354.400 378.800 C 354.400 378.580,354.760 378.400,355.200 378.400 C 355.640 378.400,356.000 378.220,356.000 378.000 C 356.000 377.780,356.218 377.600,356.485 377.600 C 357.119 377.600,361.200 373.210,361.200 372.527 C 361.200 372.237,361.380 372.000,361.600 372.000 C 361.820 372.000,362.000 371.471,362.000 370.824 C 362.000 370.177,362.180 369.536,362.400 369.400 C 362.655 369.242,362.800 363.796,362.800 354.376 C 362.800 344.792,362.659 339.600,362.400 339.600 C 362.180 339.600,362.000 339.060,362.000 338.400 C 362.000 337.740,361.820 337.200,361.600 337.200 C 361.380 337.200,361.200 336.840,361.200 336.400 C 361.200 335.960,361.020 335.600,360.800 335.600 C 360.580 335.600,360.400 335.365,360.400 335.078 C 360.400 334.419,357.844 331.600,357.246 331.600 C 357.001 331.600,356.800 331.420,356.800 331.200 C 356.800 330.980,356.440 330.800,356.000 330.800 C 355.560 330.800,355.200 330.620,355.200 330.400 C 355.200 330.180,354.851 330.000,354.424 330.000 C 353.997 330.000,353.536 329.820,353.400 329.600 C 353.089 329.096,321.600 329.047,321.600 329.550 C 321.600 329.743,321.082 330.004,320.448 330.130 C 319.815 330.257,319.018 330.640,318.677 330.980 C 318.336 331.321,317.844 331.600,317.583 331.600 C 316.964 331.600,314.400 334.402,314.400 335.078 C 314.400 335.365,314.220 335.600,314.000 335.600 C 313.780 335.600,313.600 335.960,313.600 336.400 C 313.600 336.840,313.420 337.200,313.200 337.200 C 312.980 337.200,312.800 337.740,312.800 338.400 C 312.800 339.060,312.620 339.600,312.400 339.600 C 312.159 339.600,312.000 341.267,312.000 343.800 L 312.000 348.000 298.171 348.000 C 286.720 348.000,284.245 347.902,283.771 347.429 C 283.293 346.950,283.200 343.947,283.200 329.029 L 283.200 311.200 302.400 311.200 C 314.933 311.200,321.600 311.061,321.600 310.800 C 321.600 310.580,321.960 310.400,322.400 310.400 C 322.840 310.400,323.200 310.220,323.200 310.000 C 323.200 309.780,323.386 309.600,323.613 309.600 C 324.151 309.600,326.800 306.951,326.800 306.413 C 326.800 306.186,326.980 306.000,327.200 306.000 C 327.420 306.000,327.600 305.640,327.600 305.200 C 327.600 304.760,327.780 304.400,328.000 304.400 C 328.265 304.400,328.400 283.729,328.400 243.187 L 328.400 181.973 327.013 180.587 C 326.251 179.824,325.351 179.200,325.013 179.200 C 324.676 179.200,324.400 179.020,324.400 178.800 C 324.400 178.221,323.620 178.374,321.800 179.309 M142.000 185.078 C 140.366 185.393,113.368 212.532,112.545 214.687 C 111.327 217.878,111.599 218.232,127.100 233.663 C 142.557 249.050,143.436 249.648,146.815 247.069 C 151.653 243.377,150.812 241.738,137.033 228.004 C 130.965 221.956,126.000 216.788,126.000 216.520 C 126.000 216.252,130.784 211.242,136.632 205.387 C 142.479 199.532,147.699 194.100,148.232 193.315 C 151.092 189.100,147.280 184.061,142.000 185.078 M254.270 185.368 C 253.429 185.675,252.696 185.988,252.641 186.063 C 249.031 191.017,249.148 191.228,263.418 205.392 C 269.238 211.169,274.000 216.121,274.000 216.398 C 274.000 216.674,269.112 221.783,263.138 227.750 C 251.453 239.422,250.804 240.201,250.801 242.538 C 250.798 246.022,253.966 248.441,257.627 247.750 C 259.587 247.381,286.473 220.684,287.442 218.145 C 288.644 214.998,288.482 214.782,273.854 200.071 C 257.604 183.730,257.981 184.013,254.270 185.368 M188.310 189.700 C 187.470 190.485,185.445 193.773,183.199 198.000 C 181.154 201.850,178.989 205.900,178.388 207.000 C 177.788 208.100,176.530 210.440,175.594 212.200 C 174.657 213.960,173.261 216.570,172.490 218.000 C 171.719 219.430,170.332 222.040,169.407 223.800 C 168.482 225.560,166.078 230.088,164.063 233.863 C 158.960 243.425,159.222 246.890,165.121 247.834 C 168.375 248.354,169.699 247.149,173.286 240.400 C 174.279 238.530,175.837 235.605,176.746 233.900 C 177.656 232.195,179.143 229.405,180.050 227.700 C 180.958 225.995,182.284 223.520,182.996 222.200 C 183.709 220.880,185.197 218.090,186.305 216.000 C 187.412 213.910,188.992 210.940,189.816 209.400 C 197.817 194.456,197.606 194.946,197.059 192.600 C 196.105 188.514,191.287 186.917,188.310 189.700 M197.085 235.928 C 194.519 236.223,192.370 239.930,193.028 242.928 C 194.424 249.281,203.306 248.508,203.688 242.000 C 203.936 237.768,201.397 235.433,197.085 235.928 M216.600 235.885 C 210.017 237.202,210.726 247.358,217.400 247.349 C 219.353 247.347,221.462 246.099,222.222 244.497 C 224.374 239.963,221.121 234.980,216.600 235.885 M235.115 235.895 C 232.501 236.268,230.481 239.866,231.176 242.911 C 232.689 249.542,241.993 248.324,241.999 241.494 C 242.001 237.729,239.056 235.333,235.115 235.895 M73.300 266.965 L 71.600 268.706 71.600 286.553 C 71.600 298.184,71.739 304.400,72.000 304.400 C 72.220 304.400,72.400 304.760,72.400 305.200 C 72.400 305.640,72.580 306.000,72.800 306.000 C 73.020 306.000,73.200 306.186,73.200 306.413 C 73.200 306.951,75.849 309.600,76.387 309.600 C 76.614 309.600,76.800 309.780,76.800 310.000 C 76.800 310.220,77.160 310.400,77.600 310.400 C 78.040 310.400,78.400 310.580,78.400 310.800 C 78.400 311.061,85.067 311.200,97.600 311.200 L 116.800 311.200 116.800 329.029 C 116.800 343.947,116.707 346.950,116.229 347.429 C 115.755 347.902,113.280 348.000,101.829 348.000 L 88.000 348.000 88.000 343.800 C 88.000 341.267,87.841 339.600,87.600 339.600 C 87.380 339.600,87.200 339.060,87.200 338.400 C 87.200 337.740,87.020 337.200,86.800 337.200 C 86.580 337.200,86.400 336.840,86.400 336.400 C 86.400 335.960,86.220 335.600,86.000 335.600 C 85.780 335.600,85.600 335.365,85.600 335.078 C 85.600 334.409,83.039 331.600,82.429 331.600 C 82.175 331.600,81.580 331.240,81.108 330.800 C 80.636 330.360,79.833 330.000,79.325 330.000 C 78.816 330.000,78.400 329.820,78.400 329.600 C 78.400 329.077,47.464 329.052,46.495 329.574 C 46.113 329.779,45.215 330.183,44.500 330.471 C 43.785 330.760,43.200 331.131,43.200 331.298 C 43.200 331.464,42.999 331.600,42.754 331.600 C 42.156 331.600,39.600 334.419,39.600 335.078 C 39.600 335.365,39.420 335.600,39.200 335.600 C 38.980 335.600,38.800 335.960,38.800 336.400 C 38.800 336.840,38.620 337.200,38.400 337.200 C 38.180 337.200,38.000 337.740,38.000 338.400 C 38.000 339.060,37.820 339.600,37.600 339.600 C 37.341 339.600,37.200 344.792,37.200 354.376 C 37.200 363.796,37.345 369.242,37.600 369.400 C 37.820 369.536,38.000 370.177,38.000 370.824 C 38.000 371.471,38.180 372.000,38.400 372.000 C 38.620 372.000,38.800 372.237,38.800 372.527 C 38.800 373.210,42.881 377.600,43.515 377.600 C 43.782 377.600,44.000 377.780,44.000 378.000 C 44.000 378.220,44.360 378.400,44.800 378.400 C 45.240 378.400,45.600 378.580,45.600 378.800 C 45.600 379.020,46.309 379.200,47.176 379.200 C 48.043 379.200,48.864 379.380,49.000 379.600 C 49.157 379.854,54.137 380.000,62.624 380.000 C 71.275 380.000,76.000 379.859,76.000 379.600 C 76.000 379.380,76.720 379.200,77.600 379.200 C 78.480 379.200,79.200 379.020,79.200 378.800 C 79.200 378.580,79.560 378.400,80.000 378.400 C 80.440 378.400,80.800 378.220,80.800 378.000 C 80.800 377.780,81.074 377.600,81.409 377.600 C 82.729 377.600,87.200 372.373,87.200 370.829 C 87.200 370.399,87.380 369.936,87.600 369.800 C 87.825 369.661,88.000 367.729,88.000 365.376 L 88.000 361.200 103.200 361.200 C 113.067 361.200,118.400 361.060,118.400 360.800 C 118.400 360.580,119.120 360.400,120.000 360.400 C 120.880 360.400,121.600 360.220,121.600 360.000 C 121.600 359.780,121.960 359.600,122.400 359.600 C 122.840 359.600,123.200 359.420,123.200 359.200 C 123.200 358.980,123.425 358.800,123.700 358.800 C 124.463 358.800,127.600 355.780,127.600 355.046 C 127.600 354.691,127.780 354.400,128.000 354.400 C 128.220 354.400,128.400 354.040,128.400 353.600 C 128.400 353.160,128.580 352.800,128.800 352.800 C 129.020 352.800,129.200 352.091,129.200 351.224 C 129.200 350.357,129.380 349.536,129.600 349.400 C 129.858 349.241,130.000 342.396,130.000 330.176 L 130.000 311.200 161.600 311.200 L 193.200 311.200 193.200 330.800 L 193.200 350.400 188.600 350.400 C 185.800 350.400,184.000 350.557,184.000 350.800 C 184.000 351.020,183.460 351.200,182.800 351.200 C 182.140 351.200,181.600 351.380,181.600 351.600 C 181.600 351.820,181.344 352.000,181.032 352.000 C 180.292 352.000,176.800 355.492,176.800 356.232 C 176.800 356.544,176.620 356.800,176.400 356.800 C 176.180 356.800,176.000 357.124,176.000 357.520 C 176.000 357.916,175.775 358.465,175.500 358.740 C 173.918 360.320,174.830 394.000,176.455 394.000 C 176.645 394.000,176.800 394.241,176.800 394.536 C 176.800 395.293,180.195 398.800,180.927 398.800 C 181.260 398.800,181.608 399.025,181.700 399.300 C 181.943 400.030,218.057 400.030,218.300 399.300 C 218.392 399.025,218.740 398.800,219.073 398.800 C 219.805 398.800,223.200 395.293,223.200 394.536 C 223.200 394.241,223.355 394.000,223.545 394.000 C 225.170 394.000,226.082 360.320,224.500 358.740 C 224.225 358.465,224.000 357.916,224.000 357.520 C 224.000 357.124,223.820 356.800,223.600 356.800 C 223.380 356.800,223.200 356.544,223.200 356.232 C 223.200 355.919,222.376 354.839,221.368 353.832 C 220.361 352.824,219.281 352.000,218.968 352.000 C 218.656 352.000,218.400 351.820,218.400 351.600 C 218.400 351.380,217.860 351.200,217.200 351.200 C 216.540 351.200,216.000 351.020,216.000 350.800 C 216.000 350.557,214.200 350.400,211.400 350.400 L 206.800 350.400 206.800 330.800 L 206.800 311.200 218.800 311.200 C 226.533 311.200,230.800 311.058,230.800 310.800 C 230.800 310.580,231.083 310.400,231.429 310.400 C 234.285 310.400,234.586 304.407,231.884 301.329 C 229.950 299.126,232.774 299.205,155.700 299.202 L 83.600 299.200 83.600 285.063 C 83.600 267.729,83.725 268.181,78.286 265.849 C 75.990 264.864,75.172 265.048,73.300 266.965 M75.136 342.619 C 75.718 343.897,75.784 364.665,75.210 366.174 L 74.820 367.200 62.457 367.200 L 50.093 367.200 49.852 366.300 C 49.424 364.703,49.570 343.204,50.014 342.374 C 50.409 341.635,50.975 341.600,62.550 341.600 L 74.672 341.600 75.136 342.619 M349.986 342.374 C 350.430 343.204,350.576 364.703,350.148 366.300 L 349.907 367.200 337.543 367.200 L 325.180 367.200 324.790 366.174 C 324.216 364.665,324.282 343.897,324.864 342.619 L 325.328 341.600 337.450 341.600 C 349.025 341.600,349.591 341.635,349.986 342.374 M212.320 362.880 C 212.828 363.388,213.048 386.488,212.557 387.767 C 212.188 388.728,187.812 388.728,187.443 387.767 C 186.952 386.488,187.172 363.388,187.680 362.880 C 188.032 362.528,191.324 362.400,200.000 362.400 C 208.676 362.400,211.968 362.528,212.320 362.880 " stroke="none" fill="#050505" fill-rule="evenodd"></path><path id="path1" d="M188.080 12.480 C 187.395 13.165,187.395 36.035,188.080 36.720 C 188.765 37.405,211.235 37.405,211.920 36.720 C 212.605 36.035,212.605 13.165,211.920 12.480 C 211.235 11.795,188.765 11.795,188.080 12.480 M86.094 102.014 C 84.577 102.625,84.400 103.985,84.400 115.026 L 84.400 125.600 200.018 125.600 L 315.636 125.600 315.518 114.414 C 315.411 104.302,315.331 103.159,314.686 102.514 C 313.882 101.710,88.072 101.216,86.094 102.014 M256.262 107.621 C 262.091 110.733,260.018 120.000,253.493 120.000 C 249.630 120.000,247.200 117.443,247.200 113.378 C 247.200 108.351,251.963 105.326,256.262 107.621 M274.262 107.621 C 280.120 110.748,278.014 120.003,271.446 119.999 C 267.521 119.996,265.204 117.557,265.201 113.425 C 265.198 108.352,269.941 105.314,274.262 107.621 M292.262 107.621 C 298.071 110.722,296.020 120.000,289.526 120.000 C 281.121 120.000,280.860 106.991,289.262 106.828 C 290.066 106.813,291.416 107.169,292.262 107.621 M229.800 108.000 C 229.936 108.220,230.397 108.400,230.824 108.400 C 233.971 108.400,236.013 114.505,233.900 117.600 C 231.822 120.645,237.426 120.400,169.732 120.400 C 107.621 120.400,108.075 120.412,106.353 118.729 C 104.579 116.995,103.404 111.600,104.800 111.600 C 105.020 111.600,105.200 111.335,105.200 111.012 C 105.200 110.300,107.146 108.807,108.911 108.164 C 110.603 107.549,229.421 107.387,229.800 108.000 M83.819 143.700 C 83.674 146.835,83.611 171.810,83.679 199.200 L 83.803 249.000 83.902 196.324 C 83.966 161.744,84.137 143.562,84.400 143.400 C 84.620 143.264,84.800 142.173,84.800 140.976 L 84.800 138.800 200.000 138.800 L 315.200 138.800 315.200 140.976 C 315.200 142.173,315.380 143.264,315.600 143.400 C 315.844 143.551,316.035 147.337,316.089 153.124 C 316.169 161.615,316.193 161.914,316.316 156.000 C 316.392 152.370,316.333 146.835,316.185 143.700 L 315.917 138.000 200.000 138.000 L 84.083 138.000 83.819 143.700 M317.200 164.958 C 317.200 165.359,320.185 167.200,320.793 167.175 C 321.130 167.161,320.982 166.982,320.458 166.772 C 319.940 166.565,318.995 166.024,318.358 165.570 C 317.721 165.117,317.200 164.841,317.200 164.958 M315.999 241.200 L 315.800 298.600 283.200 298.804 L 250.600 299.007 283.051 299.104 C 309.971 299.184,315.579 299.108,315.952 298.657 C 316.283 298.259,316.376 282.869,316.301 240.957 L 316.199 183.800 315.999 241.200 M140.976 185.022 C 140.212 185.634,140.213 185.638,141.000 185.276 C 141.440 185.074,142.070 184.808,142.400 184.686 C 142.918 184.493,142.915 184.459,142.376 184.432 C 142.034 184.414,141.404 184.680,140.976 185.022 M145.600 184.847 C 146.150 185.066,147.148 185.729,147.818 186.322 C 148.487 186.915,148.359 186.725,147.533 185.900 C 146.707 185.075,145.709 184.411,145.315 184.425 C 144.798 184.444,144.876 184.560,145.600 184.847 M252.467 185.900 C 251.641 186.725,251.513 186.915,252.182 186.322 C 252.852 185.729,253.850 185.066,254.400 184.847 C 255.124 184.560,255.202 184.444,254.685 184.425 C 254.291 184.411,253.293 185.075,252.467 185.900 M257.600 184.686 C 257.930 184.808,258.560 185.074,259.000 185.276 C 259.787 185.638,259.788 185.634,259.024 185.022 C 258.596 184.680,257.966 184.414,257.624 184.432 C 257.085 184.459,257.082 184.493,257.600 184.686 M126.016 199.384 C 118.437 206.966,112.318 213.221,112.418 213.284 C 112.518 213.348,118.805 207.145,126.388 199.500 C 133.972 191.855,140.091 185.600,139.986 185.600 C 139.881 185.600,133.595 191.803,126.016 199.384 M273.606 199.400 C 281.193 207.100,287.482 213.348,287.583 213.284 C 287.684 213.220,281.476 206.920,273.789 199.284 L 259.811 185.400 273.606 199.400 M149.268 188.600 C 149.262 189.040,149.411 189.760,149.600 190.200 C 150.038 191.219,150.038 190.168,149.600 188.800 C 149.343 187.996,149.277 187.957,149.268 188.600 M250.250 189.250 C 249.917 190.917,250.240 191.240,250.600 189.600 C 250.752 188.909,250.793 188.259,250.691 188.158 C 250.589 188.056,250.391 188.547,250.250 189.250 M187.329 189.700 C 186.884 190.195,186.376 190.870,186.201 191.200 C 185.863 191.837,185.955 191.750,187.576 189.900 C 188.106 189.295,188.449 188.800,188.339 188.800 C 188.229 188.800,187.775 189.205,187.329 189.700 M196.034 189.847 C 196.565 190.533,197.080 191.023,197.179 190.935 C 197.277 190.847,196.843 190.286,196.213 189.688 L 195.069 188.600 196.034 189.847 M149.246 191.738 C 149.189 192.652,147.982 194.444,145.838 196.798 L 144.200 198.596 145.738 197.198 C 147.809 195.316,149.695 192.534,149.474 191.689 C 149.313 191.078,149.288 191.084,149.246 191.738 M250.446 191.728 C 250.386 192.670,252.303 195.418,254.262 197.198 L 255.800 198.596 254.162 196.798 C 252.171 194.612,250.961 192.868,250.693 191.800 C 250.519 191.105,250.487 191.096,250.446 191.728 M197.701 193.800 C 197.705 194.680,197.787 194.993,197.883 194.495 C 197.979 193.998,197.975 193.278,197.875 192.895 C 197.775 192.513,197.696 192.920,197.701 193.800 M184.400 194.400 C 183.951 195.280,183.674 196.000,183.784 196.000 C 183.894 196.000,184.351 195.280,184.800 194.400 C 185.249 193.520,185.526 192.800,185.416 192.800 C 185.306 192.800,184.849 193.520,184.400 194.400 M193.440 203.198 C 192.840 204.299,192.436 205.200,192.541 205.200 C 192.808 205.200,194.843 201.510,194.671 201.337 C 194.593 201.260,194.039 202.097,193.440 203.198 M129.381 213.300 L 127.800 215.000 129.500 213.419 C 131.081 211.948,131.384 211.600,131.081 211.600 C 131.016 211.600,130.251 212.365,129.381 213.300 M111.630 217.600 C 111.626 218.982,121.357 229.254,136.256 243.597 C 138.425 245.686,134.042 241.186,126.515 233.597 C 118.150 225.163,112.597 219.256,112.231 218.400 C 111.901 217.630,111.631 217.270,111.630 217.600 M287.842 218.203 C 287.634 219.049,283.478 223.507,273.674 233.400 C 266.043 241.100,261.575 245.690,263.744 243.600 C 279.409 228.508,288.681 218.643,288.293 217.479 C 288.206 217.219,288.003 217.545,287.842 218.203 M183.200 222.400 C 182.751 223.280,182.474 224.000,182.584 224.000 C 182.694 224.000,183.151 223.280,183.600 222.400 C 184.049 221.520,184.326 220.800,184.216 220.800 C 184.106 220.800,183.649 221.520,183.200 222.400 M168.800 223.600 C 168.351 224.480,168.074 225.200,168.184 225.200 C 168.294 225.200,168.751 224.480,169.200 223.600 C 169.649 222.720,169.926 222.000,169.816 222.000 C 169.706 222.000,169.249 222.720,168.800 223.600 M214.489 235.865 C 213.768 236.220,213.268 236.602,213.379 236.712 C 213.490 236.823,213.810 236.733,214.090 236.511 C 214.371 236.289,215.140 235.917,215.800 235.685 C 216.460 235.453,216.730 235.253,216.400 235.241 C 216.070 235.228,215.210 235.509,214.489 235.865 M218.400 235.473 C 218.730 235.588,219.688 236.028,220.529 236.450 C 221.370 236.872,221.958 237.055,221.835 236.857 C 221.532 236.367,219.007 235.193,218.340 235.232 C 217.949 235.254,217.966 235.321,218.400 235.473 M232.442 236.760 C 231.759 237.399,231.206 238.074,231.213 238.260 C 231.220 238.447,231.487 238.254,231.806 237.832 C 232.126 237.410,232.885 236.736,233.494 236.335 C 234.102 235.934,234.394 235.604,234.142 235.603 C 233.891 235.601,233.126 236.122,232.442 236.760 M212.155 238.212 C 211.790 238.769,211.564 239.298,211.653 239.387 C 211.742 239.476,212.118 239.020,212.489 238.374 C 213.314 236.936,213.069 236.817,212.155 238.212 M148.320 239.000 C 148.753 239.660,149.197 240.560,149.307 241.000 L 149.507 241.800 149.552 241.000 C 149.576 240.560,149.132 239.660,148.565 239.000 L 147.534 237.800 148.320 239.000 M251.198 239.202 C 250.727 239.864,250.424 240.719,250.525 241.102 C 250.690 241.733,250.712 241.729,250.754 241.062 C 250.779 240.656,251.172 239.801,251.627 239.162 C 252.082 238.523,252.364 238.000,252.254 238.000 C 252.144 238.000,251.669 238.541,251.198 239.202 M223.000 241.400 C 223.000 242.788,223.135 243.840,223.300 243.738 C 223.685 243.500,223.681 239.946,223.294 239.338 C 223.132 239.084,223.000 240.012,223.000 241.400 M192.243 240.233 C 191.905 241.112,191.950 242.502,192.336 243.109 C 192.523 243.405,192.646 242.774,192.629 241.610 C 192.597 239.375,192.586 239.338,192.243 240.233 M204.006 241.500 C 204.010 242.456,204.133 242.809,204.346 242.474 C 204.654 241.987,204.500 240.000,204.153 240.000 C 204.069 240.000,204.003 240.675,204.006 241.500 M149.400 243.200 C 149.248 243.891,149.207 244.541,149.309 244.642 C 149.411 244.744,149.609 244.253,149.750 243.550 C 150.083 241.883,149.760 241.560,149.400 243.200 M230.406 242.633 C 230.409 243.055,230.595 243.670,230.818 244.000 C 231.115 244.438,231.152 244.276,230.956 243.400 C 230.627 241.929,230.398 241.610,230.406 242.633 M250.068 242.400 C 250.088 243.439,250.718 245.146,250.732 244.200 C 250.738 243.760,250.589 243.040,250.400 242.600 C 250.189 242.110,250.061 242.032,250.068 242.400 M203.200 245.001 C 202.906 245.550,202.560 246.004,202.432 246.009 C 202.305 246.014,201.750 246.389,201.200 246.842 L 200.200 247.667 201.517 246.937 C 202.769 246.244,204.252 244.518,203.899 244.166 C 203.809 244.075,203.494 244.451,203.200 245.001 M222.073 245.231 C 221.801 245.668,220.997 246.379,220.289 246.811 C 219.580 247.243,219.228 247.598,219.506 247.599 C 220.129 247.600,223.080 244.946,222.784 244.650 C 222.666 244.533,222.346 244.794,222.073 245.231 M148.273 246.018 C 147.958 246.467,147.009 247.187,146.165 247.618 C 145.321 248.048,144.894 248.399,145.215 248.397 C 146.017 248.394,147.916 247.098,148.645 246.058 C 148.975 245.586,149.155 245.200,149.045 245.200 C 148.935 245.200,148.588 245.568,148.273 246.018 M170.019 246.505 L 169.095 247.800 170.226 246.712 C 170.849 246.114,171.264 245.531,171.150 245.417 C 171.036 245.303,170.527 245.793,170.019 246.505 M213.687 246.500 C 214.306 247.105,215.035 247.595,215.306 247.588 C 215.578 247.581,215.440 247.377,215.000 247.133 C 214.560 246.890,213.831 246.400,213.381 246.045 C 212.930 245.690,213.068 245.895,213.687 246.500 M251.325 245.958 C 252.070 247.088,253.951 248.400,254.800 248.382 C 255.130 248.375,254.840 248.125,254.156 247.827 C 253.472 247.529,252.413 246.771,251.803 246.143 C 250.900 245.212,250.811 245.178,251.325 245.958 M161.800 246.965 C 162.460 247.532,163.165 247.997,163.367 247.998 C 163.801 248.000,163.796 247.996,162.000 246.837 L 160.600 245.934 161.800 246.965 M233.000 246.800 C 233.660 247.237,234.380 247.595,234.600 247.596 C 234.820 247.596,234.411 247.238,233.690 246.799 C 231.992 245.763,231.436 245.764,233.000 246.800 M197.505 247.883 C 198.002 247.979,198.722 247.975,199.105 247.875 C 199.487 247.775,199.080 247.696,198.200 247.701 C 197.320 247.705,197.007 247.787,197.505 247.883 M216.705 247.883 C 217.202 247.979,217.922 247.975,218.305 247.875 C 218.687 247.775,218.280 247.696,217.400 247.701 C 216.520 247.705,216.207 247.787,216.705 247.883 M235.905 247.883 C 236.402 247.979,237.122 247.975,237.505 247.875 C 237.887 247.775,237.480 247.696,236.600 247.701 C 235.720 247.705,235.407 247.787,235.905 247.883 M81.400 252.250 C 80.681 252.862,80.534 253.105,81.033 252.857 C 81.766 252.493,83.141 251.176,82.749 251.214 C 82.667 251.222,82.060 251.688,81.400 252.250 M79.542 266.028 C 80.060 266.235,81.005 266.776,81.642 267.230 C 82.279 267.683,82.800 267.959,82.800 267.842 C 82.800 267.441,79.815 265.600,79.207 265.625 C 78.870 265.639,79.018 265.818,79.542 266.028 M83.692 284.220 C 83.623 294.696,83.721 298.361,84.080 298.720 C 84.451 299.091,101.032 299.178,156.780 299.102 L 229.000 299.003 156.600 298.802 L 84.200 298.600 83.992 284.400 L 83.785 270.200 83.692 284.220 M230.924 300.066 C 231.542 300.581,232.413 301.452,232.859 302.001 C 233.305 302.551,233.537 302.730,233.375 302.400 C 232.909 301.449,231.473 299.963,230.600 299.528 C 230.144 299.300,230.283 299.531,230.924 300.066 M248.087 300.300 C 247.130 301.235,247.114 301.281,247.981 300.606 C 249.688 299.276,249.769 299.200,249.486 299.200 C 249.336 299.200,248.706 299.695,248.087 300.300 M188.080 363.280 C 187.395 363.965,187.395 386.835,188.080 387.520 C 188.765 388.205,211.235 388.205,211.920 387.520 C 212.605 386.835,212.605 363.965,211.920 363.280 C 211.569 362.929,208.364 362.800,200.000 362.800 C 191.636 362.800,188.431 362.929,188.080 363.280 " stroke="none" fill="#60a7cf" fill-rule="evenodd"></path><path id="path2" d="M49.852 33.700 C 49.424 35.297,49.570 56.796,50.014 57.626 C 50.409 58.365,50.975 58.400,62.550 58.400 L 74.672 58.400 75.136 57.381 C 75.718 56.103,75.784 35.335,75.210 33.826 L 74.820 32.800 62.457 32.800 L 50.093 32.800 49.852 33.700 M324.790 33.826 C 324.216 35.335,324.282 56.103,324.864 57.381 L 325.328 58.400 337.450 58.400 C 349.025 58.400,349.591 58.365,349.986 57.626 C 350.430 56.796,350.576 35.297,350.148 33.700 L 349.907 32.800 337.543 32.800 L 325.180 32.800 324.790 33.826 M50.014 342.374 C 49.570 343.204,49.424 364.703,49.852 366.300 L 50.093 367.200 62.457 367.200 L 74.820 367.200 75.210 366.174 C 75.784 364.665,75.718 343.897,75.136 342.619 L 74.672 341.600 62.550 341.600 C 50.975 341.600,50.409 341.635,50.014 342.374 M324.864 342.619 C 324.282 343.897,324.216 364.665,324.790 366.174 L 325.180 367.200 337.543 367.200 L 349.907 367.200 350.148 366.300 C 350.576 364.703,350.430 343.204,349.986 342.374 C 349.591 341.635,349.025 341.600,337.450 341.600 L 325.328 341.600 324.864 342.619 " stroke="none" fill="#fb433b" fill-rule="evenodd"></path><path id="path3" d="M187.443 12.233 C 186.952 13.512,187.172 36.612,187.680 37.120 C 188.366 37.806,211.634 37.806,212.320 37.120 C 212.828 36.612,213.048 13.512,212.557 12.233 C 212.188 11.272,187.812 11.272,187.443 12.233 M211.920 12.480 C 212.605 13.165,212.605 36.035,211.920 36.720 C 211.235 37.405,188.765 37.405,188.080 36.720 C 187.395 36.035,187.395 13.165,188.080 12.480 C 188.765 11.795,211.235 11.795,211.920 12.480 M84.960 102.160 L 83.600 103.520 83.600 114.760 L 83.600 126.000 200.000 126.000 L 316.400 126.000 316.400 114.760 L 316.400 103.520 315.040 102.160 L 313.680 100.800 200.000 100.800 L 86.320 100.800 84.960 102.160 M314.686 102.514 C 315.331 103.159,315.411 104.302,315.518 114.414 L 315.636 125.600 200.018 125.600 L 84.400 125.600 84.400 115.026 C 84.400 103.985,84.577 102.625,86.094 102.014 C 88.072 101.216,313.882 101.710,314.686 102.514 M250.393 107.657 C 244.575 110.907,246.859 120.000,253.493 120.000 C 257.134 120.000,259.600 117.335,259.600 113.400 C 259.600 108.380,254.638 105.285,250.393 107.657 M268.393 107.657 C 264.141 110.032,263.970 116.686,268.096 119.202 C 272.383 121.816,277.600 118.630,277.600 113.400 C 277.600 108.380,272.638 105.285,268.393 107.657 M286.454 107.646 C 283.806 109.199,283.200 110.314,283.200 113.636 C 283.200 119.797,289.915 122.335,294.200 117.793 C 298.905 112.806,292.334 104.198,286.454 107.646 M108.911 108.164 C 107.146 108.807,105.200 110.300,105.200 111.012 C 105.200 111.335,105.020 111.600,104.800 111.600 C 103.404 111.600,104.579 116.995,106.353 118.729 C 108.075 120.412,107.621 120.400,169.732 120.400 C 237.426 120.400,231.822 120.645,233.900 117.600 C 236.013 114.505,233.971 108.400,230.824 108.400 C 230.397 108.400,229.936 108.220,229.800 108.000 C 229.421 107.387,110.603 107.549,108.911 108.164 M256.441 108.515 C 260.205 111.049,259.872 116.829,255.850 118.776 C 249.377 121.909,244.367 112.545,250.359 108.514 C 252.169 107.297,254.631 107.297,256.441 108.515 M274.441 108.515 C 278.205 111.049,277.872 116.829,273.850 118.776 C 267.377 121.909,262.367 112.545,268.359 108.514 C 270.169 107.297,272.631 107.297,274.441 108.515 M292.441 108.515 C 296.156 111.016,295.782 116.873,291.782 118.808 C 285.989 121.613,280.883 114.058,285.327 109.256 C 287.090 107.351,290.226 107.024,292.441 108.515 M231.680 109.333 C 235.050 111.620,234.956 116.924,231.508 119.009 C 230.185 119.809,116.817 120.540,110.478 119.788 C 104.092 119.032,102.982 110.162,109.097 108.744 C 112.224 108.019,230.582 108.588,231.680 109.333 M83.679 140.700 L 83.759 143.800 83.897 140.900 L 84.035 138.000 200.000 138.000 L 315.965 138.000 316.103 140.900 L 316.241 143.800 316.321 140.700 L 316.400 137.600 200.000 137.600 L 83.600 137.600 83.679 140.700 M316.433 162.400 C 316.401 163.045,317.833 165.600,318.227 165.600 C 318.358 165.600,318.113 165.015,317.683 164.300 C 317.252 163.585,316.802 162.730,316.682 162.400 C 316.487 161.867,316.460 161.867,316.433 162.400 M318.689 180.454 C 317.560 181.296,316.400 183.135,316.400 184.080 C 316.400 184.366,316.773 183.847,317.228 182.928 C 318.060 181.248,319.161 180.262,320.617 179.892 C 321.380 179.698,321.380 179.692,320.600 179.659 C 320.160 179.641,319.300 179.998,318.689 180.454 M142.200 184.827 C 141.576 185.116,141.673 185.150,142.640 184.980 C 143.322 184.861,144.627 185.020,145.540 185.335 C 147.553 186.028,147.740 185.785,145.813 184.980 C 144.248 184.326,143.362 184.288,142.200 184.827 M254.100 184.996 C 252.257 185.798,252.487 186.014,254.460 185.335 C 255.373 185.020,256.678 184.861,257.360 184.980 C 258.327 185.150,258.424 185.116,257.800 184.827 C 256.660 184.299,255.593 184.348,254.100 184.996 M126.812 199.094 L 113.000 212.987 126.990 199.194 C 134.685 191.607,141.060 185.355,141.157 185.300 C 141.254 185.245,141.174 185.200,140.979 185.200 C 140.783 185.200,134.408 191.452,126.812 199.094 M258.810 185.246 C 258.925 185.331,265.315 191.609,273.010 199.197 L 287.000 212.994 273.600 199.472 C 266.230 192.035,259.840 185.757,259.400 185.521 C 258.960 185.285,258.694 185.161,258.810 185.246 M148.206 187.312 C 148.592 187.924,149.009 188.324,149.132 188.201 C 149.255 188.078,148.939 187.578,148.430 187.089 L 147.504 186.200 148.206 187.312 M251.398 187.202 C 250.998 187.644,250.766 188.099,250.882 188.215 C 250.997 188.330,251.390 187.969,251.755 187.412 C 252.552 186.196,252.393 186.102,251.398 187.202 M191.105 188.283 C 191.602 188.379,192.322 188.375,192.705 188.275 C 193.087 188.175,192.680 188.096,191.800 188.101 C 190.920 188.105,190.607 188.187,191.105 188.283 M188.014 189.450 C 187.328 190.027,186.839 190.572,186.928 190.662 C 187.017 190.751,187.674 190.278,188.387 189.612 C 189.980 188.124,189.722 188.012,188.014 189.450 M194.200 188.867 C 194.640 189.110,195.369 189.600,195.819 189.955 C 196.270 190.310,196.132 190.105,195.513 189.500 C 194.894 188.895,194.165 188.405,193.894 188.412 C 193.622 188.419,193.760 188.623,194.200 188.867 M185.400 193.200 C 184.843 194.300,184.477 195.200,184.587 195.200 C 184.697 195.200,185.243 194.300,185.800 193.200 C 186.357 192.100,186.723 191.200,186.613 191.200 C 186.503 191.200,185.957 192.100,185.400 193.200 M196.846 191.600 C 196.865 191.930,197.024 192.650,197.200 193.200 L 197.520 194.200 197.554 193.200 C 197.573 192.650,197.413 191.930,197.200 191.600 C 196.855 191.067,196.816 191.067,196.846 191.600 M137.231 204.727 C 131.198 210.817,126.181 216.046,126.082 216.347 C 125.896 216.911,140.255 231.600,140.992 231.600 C 141.212 231.600,138.019 228.286,133.896 224.236 C 129.773 220.186,126.400 216.720,126.400 216.533 C 126.400 216.347,131.002 211.605,136.626 205.997 C 145.282 197.366,148.941 193.498,148.327 193.627 C 148.257 193.642,143.264 198.637,137.231 204.727 M252.292 194.623 C 252.762 195.271,257.749 200.389,263.374 205.997 C 268.998 211.605,273.600 216.326,273.600 216.487 C 273.600 216.649,271.957 218.413,269.950 220.407 C 267.942 222.401,266.372 224.105,266.461 224.194 C 266.730 224.463,274.000 216.977,274.000 216.430 C 274.000 216.149,268.923 210.863,262.718 204.683 C 256.513 198.503,251.821 193.976,252.292 194.623 M197.000 195.200 C 196.850 195.673,196.817 196.150,196.927 196.260 C 197.037 196.370,197.250 196.073,197.400 195.600 C 197.550 195.127,197.583 194.650,197.473 194.540 C 197.363 194.430,197.150 194.727,197.000 195.200 M182.200 199.200 C 181.643 200.300,181.277 201.200,181.387 201.200 C 181.497 201.200,182.043 200.300,182.600 199.200 C 183.157 198.100,183.523 197.200,183.413 197.200 C 183.303 197.200,182.757 198.100,182.200 199.200 M194.214 201.035 C 193.841 201.604,193.627 202.161,193.739 202.272 C 193.850 202.383,194.229 201.918,194.581 201.237 C 195.359 199.733,195.144 199.615,194.214 201.035 M179.360 204.477 C 178.997 205.180,178.353 206.371,177.930 207.124 C 177.507 207.878,177.228 208.561,177.310 208.643 C 177.392 208.725,178.128 207.534,178.946 205.996 C 179.764 204.458,180.341 203.200,180.227 203.200 C 180.114 203.200,179.723 203.775,179.360 204.477 M191.468 206.300 C 190.429 208.034,189.589 209.722,189.706 209.839 C 189.786 209.919,190.335 209.088,190.927 207.992 C 191.783 206.408,192.217 205.049,191.468 206.300 M188.400 212.000 C 187.951 212.880,187.674 213.600,187.784 213.600 C 187.894 213.600,188.351 212.880,188.800 212.000 C 189.249 211.120,189.526 210.400,189.416 210.400 C 189.306 210.400,188.849 211.120,188.400 212.000 M173.840 214.798 C 173.240 215.899,172.836 216.800,172.941 216.800 C 173.208 216.800,175.243 213.110,175.071 212.937 C 174.993 212.860,174.439 213.697,173.840 214.798 M112.140 214.681 C 110.869 217.723,111.094 218.019,126.135 233.127 C 133.651 240.677,140.070 247.007,140.400 247.194 C 140.730 247.380,134.745 241.299,127.100 233.679 C 111.689 218.320,111.315 217.835,112.510 214.792 C 113.299 212.783,112.974 212.686,112.140 214.681 M287.488 214.787 C 288.686 217.836,288.316 218.315,272.900 233.679 C 265.255 241.299,259.270 247.380,259.600 247.194 C 261.578 246.075,287.549 219.272,287.985 217.900 C 288.465 216.390,288.034 213.915,287.201 213.401 C 287.014 213.285,287.143 213.909,287.488 214.787 M185.820 216.904 C 184.983 218.497,184.478 219.620,184.696 219.400 C 185.265 218.826,187.658 214.324,187.485 214.152 C 187.406 214.073,186.657 215.311,185.820 216.904 M181.800 224.400 C 181.459 225.060,181.269 225.600,181.379 225.600 C 181.489 225.600,181.859 225.060,182.200 224.400 C 182.541 223.740,182.731 223.200,182.621 223.200 C 182.511 223.200,182.141 223.740,181.800 224.400 M259.167 231.112 C 255.555 234.803,252.344 238.178,252.030 238.612 C 251.717 239.045,254.741 236.094,258.751 232.054 C 262.760 228.013,265.972 224.638,265.887 224.554 C 265.803 224.469,262.778 227.420,259.167 231.112 M166.628 228.261 C 166.056 229.284,165.669 230.202,165.767 230.301 C 165.866 230.399,166.411 229.562,166.980 228.440 C 168.273 225.888,168.025 225.762,166.628 228.261 M178.600 230.400 C 178.259 231.060,178.069 231.600,178.179 231.600 C 178.289 231.600,178.659 231.060,179.000 230.400 C 179.341 229.740,179.531 229.200,179.421 229.200 C 179.311 229.200,178.941 229.740,178.600 230.400 M163.760 233.677 C 163.397 234.380,162.753 235.571,162.330 236.324 C 161.907 237.078,161.635 237.768,161.725 237.858 C 161.815 237.949,162.554 236.757,163.366 235.211 C 164.179 233.665,164.748 232.400,164.632 232.400 C 164.516 232.400,164.123 232.975,163.760 233.677 M145.000 236.000 C 148.047 239.065,149.123 239.982,147.949 238.513 C 146.886 237.184,142.411 232.800,142.117 232.800 C 141.953 232.800,143.250 234.240,145.000 236.000 M175.028 237.061 C 174.456 238.084,174.052 238.985,174.129 239.063 C 174.207 239.140,174.761 238.303,175.360 237.202 C 175.960 236.101,176.364 235.200,176.259 235.200 C 176.154 235.200,175.600 236.037,175.028 237.061 M197.000 235.579 C 196.451 235.801,196.891 235.902,198.400 235.900 C 200.033 235.898,200.342 235.818,199.600 235.589 C 198.308 235.190,197.968 235.188,197.000 235.579 M216.200 235.582 C 215.638 235.810,215.990 235.902,217.386 235.889 C 218.740 235.876,219.122 235.773,218.586 235.563 C 217.591 235.175,217.193 235.178,216.200 235.582 M235.200 235.576 C 234.473 235.792,234.800 235.876,236.400 235.884 C 237.889 235.891,238.341 235.792,237.800 235.576 C 236.837 235.191,236.499 235.191,235.200 235.576 M194.054 237.461 C 192.976 238.769,192.016 241.749,192.512 242.245 C 192.617 242.351,192.827 241.613,192.978 240.605 C 193.179 239.267,193.626 238.400,194.640 237.387 C 195.403 236.624,195.854 236.000,195.642 236.000 C 195.431 236.000,194.716 236.657,194.054 237.461 M201.400 236.568 C 201.840 236.929,202.537 237.623,202.949 238.112 L 203.698 239.000 203.120 238.029 C 202.802 237.495,202.105 236.801,201.571 236.486 C 200.645 235.939,200.637 235.943,201.400 236.568 M212.471 238.359 C 210.959 241.050,211.456 244.334,213.659 246.198 L 214.600 246.994 213.750 245.997 C 211.755 243.657,211.402 240.785,212.823 238.455 C 213.274 237.715,213.575 237.042,213.493 236.959 C 213.410 236.877,212.950 237.506,212.471 238.359 M221.980 238.194 C 222.431 239.071,222.800 240.046,222.800 240.361 C 222.800 240.676,222.899 240.835,223.019 240.714 C 223.384 240.349,222.811 238.663,221.960 237.600 C 221.182 236.627,221.183 236.643,221.980 238.194 M230.656 240.519 C 230.529 241.024,230.574 241.969,230.755 242.619 C 231.034 243.616,231.082 243.472,231.066 241.700 C 231.045 239.354,230.989 239.192,230.656 240.519 M242.109 241.600 C 242.109 242.590,242.187 242.995,242.282 242.500 C 242.378 242.005,242.378 241.195,242.282 240.700 C 242.187 240.205,242.109 240.610,242.109 241.600 M160.058 242.400 C 160.009 244.012,161.115 246.800,161.803 246.800 C 161.922 246.800,161.701 246.316,161.313 245.724 C 160.925 245.131,160.496 243.736,160.360 242.624 L 160.113 240.600 160.058 242.400 M203.654 242.824 C 203.625 243.386,203.336 244.196,203.013 244.624 C 202.690 245.051,202.423 245.580,202.419 245.800 C 202.416 246.020,202.784 245.622,203.237 244.915 C 203.695 244.199,203.982 243.225,203.884 242.715 C 203.719 241.855,203.706 241.862,203.654 242.824 M192.846 243.314 C 192.749 244.810,195.666 247.637,197.247 247.580 C 197.551 247.569,197.046 247.194,196.124 246.747 C 194.443 245.932,193.463 244.844,193.092 243.383 C 192.920 242.707,192.886 242.698,192.846 243.314 M171.053 244.500 L 170.333 245.800 171.158 244.800 C 171.889 243.913,172.214 243.200,171.886 243.200 C 171.824 243.200,171.449 243.785,171.053 244.500 M241.153 244.753 C 240.805 245.359,239.729 246.238,238.760 246.707 C 237.792 247.176,237.270 247.568,237.600 247.579 C 238.948 247.620,242.595 244.461,241.947 243.813 C 241.858 243.724,241.501 244.147,241.153 244.753 M148.254 245.373 C 147.319 246.800,147.446 247.104,148.446 245.833 C 148.911 245.242,149.205 244.672,149.100 244.566 C 148.995 244.461,148.614 244.824,148.254 245.373 M250.809 244.537 C 250.804 244.722,251.160 245.331,251.600 245.891 C 252.040 246.450,252.396 246.749,252.391 246.554 C 252.379 246.087,250.820 244.100,250.809 244.537 M169.200 246.800 C 168.650 247.230,168.397 247.586,168.638 247.591 C 168.879 247.596,169.402 247.240,169.800 246.800 C 170.712 245.792,170.488 245.792,169.200 246.800 M199.400 247.200 C 198.629 247.531,198.631 247.545,199.476 247.572 C 199.958 247.587,200.464 247.420,200.600 247.200 C 200.892 246.727,200.501 246.727,199.400 247.200 M142.115 248.080 C 142.708 248.456,144.343 248.445,145.326 248.058 C 145.752 247.890,145.138 247.771,143.841 247.771 C 142.625 247.771,141.848 247.910,142.115 248.080 M164.252 248.050 C 165.241 248.438,166.885 248.461,167.460 248.094 C 167.714 247.932,166.927 247.790,165.712 247.778 C 164.380 247.765,163.801 247.873,164.252 248.050 M254.674 248.058 C 255.657 248.445,257.292 248.456,257.885 248.080 C 258.152 247.910,257.375 247.771,256.159 247.771 C 254.862 247.771,254.248 247.890,254.674 248.058 M82.597 250.127 C 82.131 251.044,81.210 252.021,80.403 252.454 C 79.638 252.864,79.252 253.200,79.544 253.200 C 80.909 253.200,83.949 249.873,83.524 248.845 C 83.456 248.680,83.039 249.257,82.597 250.127 M82.505 268.903 C 82.997 269.863,83.456 270.514,83.524 270.351 C 83.684 269.970,82.530 267.727,82.008 267.405 C 81.789 267.270,82.013 267.944,82.505 268.903 M249.400 299.600 C 249.108 300.073,249.499 300.073,250.600 299.600 C 251.371 299.269,251.369 299.255,250.524 299.228 C 250.042 299.213,249.536 299.380,249.400 299.600 M247.720 300.900 C 246.648 302.076,245.996 303.370,246.018 304.274 C 246.027 304.673,246.282 304.308,246.583 303.462 C 246.885 302.616,247.539 301.491,248.036 300.962 C 248.533 300.433,248.849 300.000,248.739 300.000 C 248.629 300.000,248.171 300.405,247.720 300.900 M187.680 362.880 C 187.172 363.388,186.952 386.488,187.443 387.767 C 187.812 388.728,212.188 388.728,212.557 387.767 C 213.048 386.488,212.828 363.388,212.320 362.880 C 211.968 362.528,208.676 362.400,200.000 362.400 C 191.324 362.400,188.032 362.528,187.680 362.880 M211.920 363.280 C 212.605 363.965,212.605 386.835,211.920 387.520 C 211.235 388.205,188.765 388.205,188.080 387.520 C 187.395 386.835,187.395 363.965,188.080 363.280 C 188.431 362.929,191.636 362.800,200.000 362.800 C 208.364 362.800,211.569 362.929,211.920 363.280 " stroke="none" fill="#3e64a5" fill-rule="evenodd"></path><path id="path4" d="M84.800 140.920 C 84.800 142.086,84.623 143.217,84.406 143.434 C 84.152 143.688,83.974 162.698,83.906 196.845 L 83.800 249.862 82.724 251.274 C 81.971 252.260,80.917 252.958,79.224 253.591 L 76.800 254.498 76.800 259.831 L 76.800 265.164 78.300 265.431 C 83.635 266.379,83.764 266.802,84.000 284.000 L 84.200 298.600 157.200 298.805 C 197.350 298.917,230.239 299.052,230.286 299.105 C 230.333 299.157,231.009 299.759,231.787 300.442 C 232.771 301.306,233.394 302.343,233.830 303.842 L 234.457 306.000 239.764 306.000 C 245.467 306.000,246.000 305.771,246.000 303.319 C 246.000 302.484,247.782 300.154,248.916 299.505 C 249.601 299.114,257.247 298.955,282.800 298.800 L 315.800 298.600 316.000 240.800 C 316.190 185.757,316.235 182.949,316.928 181.928 C 317.837 180.588,318.953 179.849,321.224 179.082 L 323.000 178.482 323.111 173.087 L 323.222 167.693 321.711 167.413 C 316.683 166.481,316.225 165.359,316.076 153.600 C 316.007 148.210,315.782 143.629,315.576 143.420 C 315.369 143.211,315.200 142.086,315.200 140.920 L 315.200 138.800 200.000 138.800 L 84.800 138.800 84.800 140.920 M147.591 185.839 C 152.202 190.006,151.513 191.326,137.319 205.514 C 131.533 211.297,126.800 216.221,126.800 216.457 C 126.800 216.693,131.438 221.501,137.107 227.143 C 149.340 239.317,149.682 239.728,149.721 242.310 C 149.794 247.124,144.737 250.157,140.747 247.691 C 139.107 246.677,112.940 220.569,112.169 219.177 C 111.450 217.879,111.459 215.202,112.186 213.761 C 112.796 212.554,139.050 186.204,140.789 185.054 C 142.660 183.817,145.747 184.173,147.591 185.839 M259.211 185.054 C 260.950 186.204,287.204 212.554,287.814 213.761 C 288.541 215.202,288.550 217.879,287.831 219.177 C 287.060 220.569,260.893 246.677,259.253 247.691 C 255.263 250.157,250.206 247.124,250.279 242.310 C 250.317 239.745,250.582 239.426,262.875 227.125 C 268.554 221.442,273.200 216.610,273.200 216.387 C 273.200 216.164,268.465 211.261,262.678 205.491 C 251.638 194.484,250.668 193.377,250.279 191.347 C 249.379 186.650,255.308 182.473,259.211 185.054 M195.505 189.058 C 196.919 190.131,198.000 192.261,198.000 193.975 C 198.000 194.981,192.119 207.101,191.194 208.000 C 191.081 208.110,190.253 209.640,189.354 211.400 C 187.579 214.876,185.075 219.611,183.009 223.400 C 182.289 224.720,180.843 227.420,179.796 229.400 C 178.749 231.380,177.260 234.170,176.488 235.600 C 175.716 237.030,174.526 239.280,173.844 240.600 C 173.163 241.920,172.504 243.090,172.382 243.200 C 172.259 243.310,171.861 244.039,171.498 244.821 C 169.548 249.017,164.662 249.835,161.346 246.520 C 159.628 244.801,159.402 241.076,160.860 238.512 C 161.333 237.680,162.342 235.830,163.102 234.400 C 164.405 231.949,165.086 230.670,169.820 221.800 C 170.877 219.820,172.275 217.210,172.926 216.000 C 173.578 214.790,174.780 212.540,175.598 211.000 C 176.415 209.460,177.716 207.030,178.488 205.600 C 179.261 204.170,180.747 201.380,181.791 199.400 C 185.921 191.572,186.906 189.960,188.129 189.034 C 190.361 187.345,193.260 187.354,195.505 189.058 M201.047 235.849 C 205.484 237.955,205.556 244.764,201.165 247.100 C 199.090 248.204,197.632 248.237,195.645 247.223 C 188.405 243.529,193.707 232.366,201.047 235.849 M220.253 235.852 C 223.040 237.174,224.415 241.444,222.980 244.320 C 219.964 250.366,211.520 248.376,211.520 241.620 C 211.520 236.559,215.794 233.736,220.253 235.852 M239.199 235.800 C 243.326 237.933,243.746 243.967,239.963 246.764 C 235.998 249.696,230.387 246.632,230.407 241.546 C 230.424 236.924,235.261 233.763,239.199 235.800 " stroke="none" fill="#e4fcfc" fill-rule="evenodd"></path></g></svg>